<svg width="18" height="18" viewBox="0 0 18 18" fill="none" xmlns="http://www.w3.org/2000/svg">
<rect width="18" height="18" rx="9" fill="url(#paint0_radial_1754_1192)"/>
<rect x="0.45" y="0.45" width="17.1" height="17.1" rx="8.55" stroke="white" stroke-opacity="0.1" stroke-width="0.9"/>
<path d="M6.97422 9.78945C7.24422 9.78945 7.49172 9.86258 7.71672 10.0088C7.94172 10.1551 8.10766 10.3548 8.21453 10.6079L8.29891 10.802H8.50984C8.74609 10.802 8.94297 10.8849 9.10047 11.0509C9.25797 11.2168 9.33672 11.4151 9.33672 11.6457C9.33672 11.882 9.25516 12.0816 9.09203 12.2448C8.92891 12.4079 8.72922 12.4895 8.49297 12.4895H6.97422C6.60297 12.4895 6.28516 12.3573 6.02078 12.0929C5.75641 11.8285 5.62422 11.5107 5.62422 11.1395C5.62422 10.7626 5.75641 10.4434 6.02078 10.1818C6.28516 9.92023 6.60297 9.78945 6.97422 9.78945ZM8.74609 6.07695C8.64484 6.63383 8.67578 7.17805 8.83891 7.70961C9.00203 8.24117 9.28328 8.70664 9.68266 9.10602C10.082 9.50539 10.5475 9.78664 11.0791 9.94977C11.6106 10.1129 12.1548 10.1438 12.7117 10.0426C12.5655 10.8413 12.1858 11.5009 11.5727 12.0212C10.9595 12.5415 10.2508 12.8101 9.44641 12.827C9.62641 12.6807 9.76562 12.5049 9.86406 12.2996C9.9625 12.0943 10.0117 11.8763 10.0117 11.6457C10.0117 11.2632 9.89219 10.9327 9.65312 10.6543C9.41406 10.3759 9.10891 10.2085 8.73766 10.1523C8.55766 9.83164 8.31156 9.57852 7.99937 9.39289C7.68719 9.20727 7.34547 9.11445 6.97422 9.11445C6.79422 9.11445 6.61844 9.13695 6.44687 9.18195C6.27531 9.22695 6.11359 9.29445 5.96172 9.38445C5.97297 8.56883 6.23875 7.85164 6.75906 7.23289C7.27937 6.61414 7.94172 6.22883 8.74609 6.07695Z" fill="white" fill-opacity="0.9"/>
<defs>
<radialGradient id="paint0_radial_1754_1192" cx="0" cy="0" r="1" gradientUnits="userSpaceOnUse" gradientTransform="translate(5.4 5.4) scale(17.8191)">
<stop stop-color="#4B6CB7"/>
<stop offset="1" stop-color="#182848"/>
</radialGradient>
</defs>
</svg>
