<svg width="20" height="20" viewBox="0 0 20 20" fill="none" xmlns="http://www.w3.org/2000/svg">
<rect x="0.472656" y="0.470703" width="18.8571" height="18.8571" rx="9.42857" fill="url(#paint0_radial_1525_1118)"/>
<path d="M6.72087 10.8247C6.67373 10.8247 6.63248 10.807 6.59712 10.7716C6.56176 10.7363 6.54408 10.695 6.54408 10.6479C6.54408 10.6007 6.56176 10.5595 6.59712 10.5241C6.63248 10.4888 6.67373 10.4711 6.72087 10.4711C6.76801 10.4711 6.80926 10.4888 6.84462 10.5241C6.87998 10.5595 6.89766 10.6007 6.89766 10.6479C6.89766 10.695 6.87998 10.7363 6.84462 10.7716C6.80926 10.807 6.76801 10.8247 6.72087 10.8247ZM6.72087 9.41038C6.67373 9.41038 6.63248 9.3927 6.59712 9.35734C6.56176 9.32199 6.54408 9.28074 6.54408 9.23359C6.54408 9.18645 6.56176 9.1452 6.59712 9.10984C6.63248 9.07449 6.67373 9.05681 6.72087 9.05681C6.76801 9.05681 6.80926 9.07449 6.84462 9.10984C6.87998 9.1452 6.89766 9.18645 6.89766 9.23359C6.89766 9.28074 6.87998 9.32199 6.84462 9.35734C6.80926 9.3927 6.76801 9.41038 6.72087 9.41038ZM7.78158 12.3613C7.695 12.3613 7.6235 12.3331 7.56706 12.2767C7.51063 12.2203 7.48241 12.1487 7.48241 12.0622C7.48241 11.9756 7.51063 11.9041 7.56706 11.8476C7.6235 11.7912 7.695 11.763 7.78158 11.763C7.86816 11.763 7.93967 11.7912 7.99611 11.8476C8.05254 11.9041 8.08076 11.9756 8.08076 12.0622C8.08076 12.1487 8.05254 12.2203 7.99611 12.2767C7.93967 12.3331 7.86816 12.3613 7.78158 12.3613ZM7.78158 10.9471C7.695 10.9471 7.6235 10.9188 7.56706 10.8624C7.51063 10.806 7.48241 10.7345 7.48241 10.6479C7.48241 10.5613 7.51063 10.4898 7.56706 10.4334C7.6235 10.3769 7.695 10.3487 7.78158 10.3487C7.86816 10.3487 7.93967 10.3769 7.99611 10.4334C8.05254 10.4898 8.08076 10.5613 8.08076 10.6479C8.08076 10.7345 8.05254 10.806 7.99611 10.8624C7.93967 10.9188 7.86816 10.9471 7.78158 10.9471ZM7.78158 9.53277C7.695 9.53277 7.6235 9.50455 7.56706 9.44812C7.51063 9.39168 7.48241 9.32017 7.48241 9.23359C7.48241 9.14701 7.51063 9.07551 7.56706 9.01907C7.6235 8.96264 7.695 8.93442 7.78158 8.93442C7.86816 8.93442 7.93967 8.96264 7.99611 9.01907C8.05254 9.07551 8.08076 9.14701 8.08076 9.23359C8.08076 9.32017 8.05254 9.39168 7.99611 9.44812C7.93967 9.50455 7.86816 9.53277 7.78158 9.53277ZM7.78158 8.11848C7.695 8.11848 7.6235 8.09027 7.56706 8.03383C7.51063 7.9774 7.48241 7.90589 7.48241 7.81931C7.48241 7.73273 7.51063 7.66122 7.56706 7.60478C7.6235 7.54835 7.695 7.52013 7.78158 7.52013C7.86816 7.52013 7.93967 7.54835 7.99611 7.60478C8.05254 7.66122 8.08076 7.73273 8.08076 7.81931C8.08076 7.90589 8.05254 7.9774 7.99611 8.03383C7.93967 8.09027 7.86816 8.11848 7.78158 8.11848ZM9.19587 11.0694C9.08028 11.0694 8.98112 11.0281 8.89839 10.9454C8.81567 10.8626 8.7743 10.7635 8.7743 10.6479C8.7743 10.5323 8.81567 10.4331 8.89839 10.3504C8.98112 10.2677 9.08028 10.2263 9.19587 10.2263C9.31146 10.2263 9.41062 10.2677 9.49335 10.3504C9.57607 10.4331 9.61744 10.5323 9.61744 10.6479C9.61744 10.7635 9.57607 10.8626 9.49335 10.9454C9.41062 11.0281 9.31146 11.0694 9.19587 11.0694ZM9.19587 9.65516C9.08028 9.65516 8.98112 9.6138 8.89839 9.53107C8.81567 9.44834 8.7743 9.34918 8.7743 9.23359C8.7743 9.118 8.81567 9.01884 8.89839 8.93612C8.98112 8.85339 9.08028 8.81203 9.19587 8.81203C9.31146 8.81203 9.41062 8.85339 9.49335 8.93612C9.57607 9.01884 9.61744 9.118 9.61744 9.23359C9.61744 9.34918 9.57607 9.44834 9.49335 9.53107C9.41062 9.6138 9.31146 9.65516 9.19587 9.65516ZM9.19587 12.3613C9.10929 12.3613 9.03778 12.3331 8.98135 12.2767C8.92491 12.2203 8.89669 12.1487 8.89669 12.0622C8.89669 11.9756 8.92491 11.9041 8.98135 11.8476C9.03778 11.7912 9.10929 11.763 9.19587 11.763C9.28245 11.763 9.35396 11.7912 9.41039 11.8476C9.46683 11.9041 9.49505 11.9756 9.49505 12.0622C9.49505 12.1487 9.46683 12.2203 9.41039 12.2767C9.35396 12.3331 9.28245 12.3613 9.19587 12.3613ZM9.19587 8.11848C9.10929 8.11848 9.03778 8.09027 8.98135 8.03383C8.92491 7.9774 8.89669 7.90589 8.89669 7.81931C8.89669 7.73273 8.92491 7.66122 8.98135 7.60478C9.03778 7.54835 9.10929 7.52013 9.19587 7.52013C9.28245 7.52013 9.35396 7.54835 9.41039 7.60478C9.46683 7.66122 9.49505 7.73273 9.49505 7.81931C9.49505 7.90589 9.46683 7.9774 9.41039 8.03383C9.35396 8.09027 9.28245 8.11848 9.19587 8.11848ZM9.19587 13.2997C9.14873 13.2997 9.10748 13.282 9.07212 13.2466C9.03676 13.2113 9.01908 13.17 9.01908 13.1229C9.01908 13.0757 9.03676 13.0345 9.07212 12.9991C9.10748 12.9638 9.14873 12.9461 9.19587 12.9461C9.24301 12.9461 9.28426 12.9638 9.31962 12.9991C9.35498 13.0345 9.37266 13.0757 9.37266 13.1229C9.37266 13.17 9.35498 13.2113 9.31962 13.2466C9.28426 13.282 9.24301 13.2997 9.19587 13.2997ZM9.19587 6.93538C9.14873 6.93538 9.10748 6.9177 9.07212 6.88234C9.03676 6.84699 9.01908 6.80574 9.01908 6.75859C9.01908 6.71145 9.03676 6.6702 9.07212 6.63484C9.10748 6.59949 9.14873 6.58181 9.19587 6.58181C9.24301 6.58181 9.28426 6.59949 9.31962 6.63484C9.35498 6.6702 9.37266 6.71145 9.37266 6.75859C9.37266 6.80574 9.35498 6.84699 9.31962 6.88234C9.28426 6.9177 9.24301 6.93538 9.19587 6.93538ZM10.6102 11.0694C10.4946 11.0694 10.3954 11.0281 10.3127 10.9454C10.23 10.8626 10.1886 10.7635 10.1886 10.6479C10.1886 10.5323 10.23 10.4331 10.3127 10.3504C10.3954 10.2677 10.4946 10.2263 10.6102 10.2263C10.7257 10.2263 10.8249 10.2677 10.9076 10.3504C10.9904 10.4331 11.0317 10.5323 11.0317 10.6479C11.0317 10.7635 10.9904 10.8626 10.9076 10.9454C10.8249 11.0281 10.7257 11.0694 10.6102 11.0694ZM10.6102 9.65516C10.4946 9.65516 10.3954 9.6138 10.3127 9.53107C10.23 9.44834 10.1886 9.34918 10.1886 9.23359C10.1886 9.118 10.23 9.01884 10.3127 8.93612C10.3954 8.85339 10.4946 8.81203 10.6102 8.81203C10.7257 8.81203 10.8249 8.85339 10.9076 8.93612C10.9904 9.01884 11.0317 9.118 11.0317 9.23359C11.0317 9.34918 10.9904 9.44834 10.9076 9.53107C10.8249 9.6138 10.7257 9.65516 10.6102 9.65516ZM10.6102 12.3613C10.5236 12.3613 10.4521 12.3331 10.3956 12.2767C10.3392 12.2203 10.311 12.1487 10.311 12.0622C10.311 11.9756 10.3392 11.9041 10.3956 11.8476C10.4521 11.7912 10.5236 11.763 10.6102 11.763C10.6967 11.763 10.7682 11.7912 10.8247 11.8476C10.8811 11.9041 10.9093 11.9756 10.9093 12.0622C10.9093 12.1487 10.8811 12.2203 10.8247 12.2767C10.7682 12.3331 10.6967 12.3613 10.6102 12.3613ZM10.6102 8.11848C10.5236 8.11848 10.4521 8.09027 10.3956 8.03383C10.3392 7.9774 10.311 7.90589 10.311 7.81931C10.311 7.73273 10.3392 7.66122 10.3956 7.60478C10.4521 7.54835 10.5236 7.52013 10.6102 7.52013C10.6967 7.52013 10.7682 7.54835 10.8247 7.60478C10.8811 7.66122 10.9093 7.73273 10.9093 7.81931C10.9093 7.90589 10.8811 7.9774 10.8247 8.03383C10.7682 8.09027 10.6967 8.11848 10.6102 8.11848ZM10.6102 13.2997C10.563 13.2997 10.5218 13.282 10.4864 13.2466C10.451 13.2113 10.4334 13.17 10.4334 13.1229C10.4334 13.0757 10.451 13.0345 10.4864 12.9991C10.5218 12.9638 10.563 12.9461 10.6102 12.9461C10.6573 12.9461 10.6985 12.9638 10.7339 12.9991C10.7693 13.0345 10.7869 13.0757 10.7869 13.1229C10.7869 13.17 10.7693 13.2113 10.7339 13.2466C10.6985 13.282 10.6573 13.2997 10.6102 13.2997ZM10.6102 6.93538C10.563 6.93538 10.5218 6.9177 10.4864 6.88234C10.451 6.84699 10.4334 6.80574 10.4334 6.75859C10.4334 6.71145 10.451 6.6702 10.4864 6.63484C10.5218 6.59949 10.563 6.58181 10.6102 6.58181C10.6573 6.58181 10.6985 6.59949 10.7339 6.63484C10.7693 6.6702 10.7869 6.71145 10.7869 6.75859C10.7869 6.80574 10.7693 6.84699 10.7339 6.88234C10.6985 6.9177 10.6573 6.93538 10.6102 6.93538ZM12.0244 12.3613C11.9379 12.3613 11.8664 12.3331 11.8099 12.2767C11.7535 12.2203 11.7253 12.1487 11.7253 12.0622C11.7253 11.9756 11.7535 11.9041 11.8099 11.8476C11.8664 11.7912 11.9379 11.763 12.0244 11.763C12.111 11.763 12.1825 11.7912 12.239 11.8476C12.2954 11.9041 12.3236 11.9756 12.3236 12.0622C12.3236 12.1487 12.2954 12.2203 12.239 12.2767C12.1825 12.3331 12.111 12.3613 12.0244 12.3613ZM12.0244 10.9471C11.9379 10.9471 11.8664 10.9188 11.8099 10.8624C11.7535 10.806 11.7253 10.7345 11.7253 10.6479C11.7253 10.5613 11.7535 10.4898 11.8099 10.4334C11.8664 10.3769 11.9379 10.3487 12.0244 10.3487C12.111 10.3487 12.1825 10.3769 12.239 10.4334C12.2954 10.4898 12.3236 10.5613 12.3236 10.6479C12.3236 10.7345 12.2954 10.806 12.239 10.8624C12.1825 10.9188 12.111 10.9471 12.0244 10.9471ZM12.0244 9.53277C11.9379 9.53277 11.8664 9.50455 11.8099 9.44812C11.7535 9.39168 11.7253 9.32017 11.7253 9.23359C11.7253 9.14701 11.7535 9.07551 11.8099 9.01907C11.8664 8.96264 11.9379 8.93442 12.0244 8.93442C12.111 8.93442 12.1825 8.96264 12.239 9.01907C12.2954 9.07551 12.3236 9.14701 12.3236 9.23359C12.3236 9.32017 12.2954 9.39168 12.239 9.44812C12.1825 9.50455 12.111 9.53277 12.0244 9.53277ZM12.0244 8.11848C11.9379 8.11848 11.8664 8.09027 11.8099 8.03383C11.7535 7.9774 11.7253 7.90589 11.7253 7.81931C11.7253 7.73273 11.7535 7.66122 11.8099 7.60478C11.8664 7.54835 11.9379 7.52013 12.0244 7.52013C12.111 7.52013 12.1825 7.54835 12.239 7.60478C12.2954 7.66122 12.3236 7.73273 12.3236 7.81931C12.3236 7.90589 12.2954 7.9774 12.239 8.03383C12.1825 8.09027 12.111 8.11848 12.0244 8.11848ZM13.0852 10.8247C13.038 10.8247 12.9968 10.807 12.9614 10.7716C12.926 10.7363 12.9084 10.695 12.9084 10.6479C12.9084 10.6007 12.926 10.5595 12.9614 10.5241C12.9968 10.4888 13.038 10.4711 13.0852 10.4711C13.1323 10.4711 13.1735 10.4888 13.2089 10.5241C13.2443 10.5595 13.2619 10.6007 13.2619 10.6479C13.2619 10.695 13.2443 10.7363 13.2089 10.7716C13.1735 10.807 13.1323 10.8247 13.0852 10.8247ZM13.0852 9.41038C13.038 9.41038 12.9968 9.3927 12.9614 9.35734C12.926 9.32199 12.9084 9.28074 12.9084 9.23359C12.9084 9.18645 12.926 9.1452 12.9614 9.10984C12.9968 9.07449 13.038 9.05681 13.0852 9.05681C13.1323 9.05681 13.1735 9.07449 13.2089 9.10984C13.2443 9.1452 13.2619 9.18645 13.2619 9.23359C13.2619 9.28074 13.2443 9.32199 13.2089 9.35734C13.1735 9.3927 13.1323 9.41038 13.0852 9.41038Z" fill="white" fill-opacity="0.9"/>
<mask id="mask0_1525_1118" style="mask-type:alpha" maskUnits="userSpaceOnUse" x="0" y="0" width="20" height="20">
<rect width="19.8" height="19.8" fill="white"/>
</mask>
<g mask="url(#mask0_1525_1118)">
<rect width="19.8" height="19.8" rx="9.9" fill="url(#paint1_linear_1525_1118)"/>
</g>
<defs>
<radialGradient id="paint0_radial_1525_1118" cx="0" cy="0" r="1" gradientUnits="userSpaceOnUse" gradientTransform="translate(6.1298 6.12785) scale(18.6676)">
<stop stop-color="#FF9A8B"/>
<stop offset="0.4" stop-color="#FF6A88"/>
<stop offset="0.8" stop-color="#E0115F"/>
<stop offset="1" stop-color="#7C0A2D"/>
</radialGradient>
<linearGradient id="paint1_linear_1525_1118" x1="0" y1="0" x2="19.8" y2="19.8" gradientUnits="userSpaceOnUse">
<stop stop-color="#D4AF37"/>
<stop offset="0.5" stop-color="#D4AF37" stop-opacity="0"/>
<stop offset="1" stop-color="#D4AF37" stop-opacity="0.5"/>
</linearGradient>
</defs>
</svg>
