<svg width="408" height="54" viewBox="0 0 408 54" fill="none" xmlns="http://www.w3.org/2000/svg">
<g clip-path="url(#clip0_1279_2178)">
<rect width="408" height="54" fill="#1C1C1E" fill-opacity="0.6"/>
<path d="M360.451 7.4355C362.197 10.1265 365.592 11.133 368.69 11.9637C371.788 12.7941 375.23 13.6192 378.087 12.1622L420.522 -9.47712L380.572 16.4475C377.879 18.1951 376.873 21.5931 376.042 24.6943C375.212 27.7939 374.386 31.2377 375.844 34.0963L397.479 76.5224L371.556 36.5767C369.808 33.8835 366.41 32.8769 363.309 32.0464C360.207 31.2157 356.76 30.3879 353.9 31.8468L311.479 53.4794L351.431 27.5523C354.122 25.8059 355.129 22.4117 355.959 19.3131C356.79 16.2129 357.617 12.768 356.159 9.90866L334.522 -32.5215L360.451 7.4355Z" fill="#323232"/>
<g opacity="0.2">
<g filter="url(#filter0_f_1279_2178)">
<ellipse cx="54.1181" cy="49.506" rx="8.13374" ry="6.3908" fill="#41EBEB"/>
</g>
<circle cx="43.6904" cy="36.2978" r="17.4443" fill="#0A858B"/>
<g filter="url(#filter1_g_1279_2178)">
<circle cx="43.5373" cy="36.3537" r="15.5061" fill="#08BEC9"/>
</g>
<path d="M46.0906 22.6993L48.5519 29.1067L55.1106 27.0829L52.8775 33.5732L59.2026 36.2388L53.32 39.7753L56.452 45.8829L49.6724 44.8107L48.1457 51.5026L43.6414 46.3235L38.1705 50.4684L38.0491 43.6057L31.1938 43.2643L35.512 37.9291L30.48 33.261L37.2174 31.9497L36.3633 25.1393L42.3673 28.4655L46.0906 22.6993Z" fill="#06B0BC"/>
<path d="M41.7414 22.1028C41.6931 21.775 41.388 21.5472 41.0626 21.6095C39.9841 21.8162 38.9337 22.1496 37.9334 22.6027C37.6317 22.7394 37.5138 23.1015 37.6633 23.3972V23.3972C37.8129 23.6928 38.1732 23.8098 38.4755 23.6743C39.3599 23.278 40.2866 22.9838 41.2377 22.7976C41.5628 22.7339 41.7897 22.4305 41.7414 22.1028V22.1028Z" fill="#41E5EE"/>
<path d="M36.4431 24.0891C36.2679 23.8051 35.8947 23.7159 35.6186 23.9033C33.4636 25.3651 31.7573 27.3977 30.6908 29.7733C30.5542 30.0777 30.7066 30.4298 31.0166 30.5532V30.5532C31.3266 30.6767 31.6767 30.5247 31.8146 30.2208C32.7835 28.0858 34.3191 26.2566 36.254 24.9326C36.5294 24.7441 36.6184 24.373 36.4431 24.0891V24.0891Z" fill="#41E5EE"/>
<g filter="url(#filter2_d_1279_2178)">
<path d="M42.6157 22.6617C42.9988 21.9077 44.0759 21.9077 44.4589 22.6617L46.3877 26.4583C46.6341 26.9432 47.214 27.1542 47.7144 26.9411L51.6324 25.2726C52.4105 24.9412 53.2356 25.6336 53.0444 26.4574L52.0815 30.6056C51.9586 31.1354 52.2671 31.6699 52.7874 31.8283L56.8613 33.0685C57.6703 33.3148 57.8574 34.3756 57.1813 34.8837L53.7774 37.4425C53.3426 37.7693 53.2355 38.3771 53.5322 38.8329L55.8557 42.4016C56.3172 43.1103 55.7787 44.0431 54.9341 43.9979L50.6818 43.77C50.1387 43.7409 49.6659 44.1376 49.6003 44.6775L49.0863 48.9048C48.9842 49.7443 47.9721 50.1127 47.3542 49.5352L44.2432 46.6273C43.8459 46.2559 43.2287 46.2559 42.8314 46.6273L39.7204 49.5352C39.1025 50.1127 38.0904 49.7443 37.9883 48.9048L37.4743 44.6775C37.4087 44.1376 36.9359 43.7409 36.3928 43.77L32.1405 43.9979C31.296 44.0431 30.7574 43.1103 31.2189 42.4016L33.5424 38.8329C33.8391 38.3771 33.732 37.7693 33.2972 37.4425L29.8933 34.8837C29.2172 34.3755 29.4043 33.3148 30.2134 33.0685L34.2872 31.8283C34.8075 31.6699 35.1161 31.1354 34.9931 30.6056L34.0303 26.4574C33.839 25.6336 34.6641 24.9412 35.4423 25.2726L39.3602 26.9411C39.8606 27.1542 40.4405 26.9432 40.6869 26.4583L42.6157 22.6617Z" fill="#41EBEB"/>
<path d="M43.0146 22.8643C43.232 22.4366 43.8432 22.4365 44.0605 22.8643L45.9893 26.6611C46.3423 27.3556 47.1729 27.6578 47.8896 27.3525L51.8076 25.6846C52.2491 25.4966 52.7169 25.8891 52.6084 26.3564L51.6455 30.5049C51.4696 31.2637 51.912 32.029 52.6572 32.2559L56.7314 33.4961C57.1902 33.636 57.2955 34.2381 56.9121 34.5264L53.5088 37.085C52.8859 37.5532 52.7321 38.4242 53.1572 39.0771L55.4805 42.6455C55.7423 43.0476 55.4371 43.5765 54.958 43.5508L50.7061 43.3232C49.9281 43.2816 49.2505 43.8498 49.1562 44.623L48.6426 48.8506C48.5847 49.3269 48.0097 49.5356 47.6592 49.208L44.5488 46.3008C43.9796 45.7687 43.0956 45.7688 42.5264 46.3008L39.415 49.208C39.0645 49.5356 38.4905 49.3269 38.4326 48.8506L37.918 44.623C37.8237 43.8499 37.147 43.2817 36.3691 43.3232L32.1162 43.5508C31.6373 43.5762 31.332 43.0475 31.5938 42.6455L33.917 39.0771C34.3421 38.4242 34.1891 37.5532 33.5664 37.085L30.1621 34.5264C29.7786 34.2381 29.8847 33.6358 30.3438 33.4961L34.417 32.2559C35.1623 32.029 35.6047 31.2638 35.4287 30.5049L34.4658 26.3564C34.3574 25.8891 34.8252 25.4968 35.2666 25.6846L39.1846 27.3525C39.9014 27.6578 40.733 27.3558 41.0859 26.6611L43.0146 22.8643Z" stroke="#0A858B" stroke-width="0.89458"/>
</g>
<g filter="url(#filter3_g_1279_2178)">
<path d="M43.542 22.1426L46.5561 28.0753L52.6785 25.468L51.174 31.9502L57.54 33.8882L52.2207 37.8868L55.8516 43.4634L49.2066 43.1073L48.4034 49.7131L43.542 45.1691L38.6806 49.7131L37.8774 43.1073L31.2324 43.4634L34.8633 37.8868L29.5441 33.8882L35.9101 31.9502L34.4055 25.468L40.5279 28.0753L43.542 22.1426Z" fill="#41EBEB"/>
<path d="M46.1572 28.2783L46.3467 28.6504L46.7314 28.4873L52.0439 26.2246L50.7383 31.8486L50.6436 32.2559L51.0439 32.3779L56.5664 34.0596L51.9521 37.5293L51.6182 37.7803L51.8457 38.1309L54.9961 42.9688L49.2305 42.6611L48.8135 42.6387L48.7627 43.0537L48.0645 48.7842L43.8477 44.8428L43.542 44.5566L43.2363 44.8428L39.0186 48.7842L38.3213 43.0537L38.2705 42.6387L37.8535 42.6611L32.0869 42.9688L35.2383 38.1309L35.4658 37.7803L35.1318 37.5293L30.5166 34.0596L36.04 32.3779L36.4404 32.2559L36.3457 31.8486L35.0391 26.2246L40.3525 28.4873L40.7373 28.6504L40.9268 28.2783L43.542 23.1289L46.1572 28.2783Z" stroke="#0A858B" stroke-width="0.89458"/>
</g>
<path d="M42.9781 34.6217C42.9781 35.7607 42.177 36.5619 41.0476 36.5619C39.9183 36.5619 39.1172 35.7607 39.1172 34.6217C39.1172 33.4828 39.9183 32.6816 41.0476 32.6816C42.177 32.6816 42.9781 33.4828 42.9781 34.6217ZM47.0707 32.8361L41.6461 39.9595H40.1886L45.6132 32.8361H47.0707ZM41.8198 34.6217C41.8198 34.1391 41.511 33.8013 41.0476 33.8013C40.5843 33.8013 40.2755 34.1391 40.2755 34.6217C40.2755 35.1044 40.5843 35.4422 41.0476 35.4422C41.511 35.4422 41.8198 35.1044 41.8198 34.6217ZM48.1614 38.1448C48.1614 39.2838 47.3602 40.0849 46.2309 40.0849C45.1016 40.0849 44.3005 39.2838 44.3005 38.1448C44.3005 37.0059 45.1016 36.2047 46.2309 36.2047C47.3602 36.2047 48.1614 37.0059 48.1614 38.1448ZM47.0031 38.1448C47.0031 37.6622 46.6942 37.3244 46.2309 37.3244C45.7676 37.3244 45.4587 37.6622 45.4587 38.1448C45.4587 38.6274 45.7676 38.9653 46.2309 38.9653C46.6942 38.9653 47.0031 38.6274 47.0031 38.1448Z" fill="#0A858B"/>
<path d="M57.0238 46.3957C57.1759 46.6301 57.4719 46.7173 57.7418 46.7896C58.0112 46.8618 58.3105 46.9339 58.5589 46.8072L62.2355 44.9327L58.7709 47.1803C58.5379 47.3314 58.4507 47.6253 58.3786 47.8936C58.3063 48.1624 58.2341 48.4611 58.3606 48.7091L60.2374 52.3898L57.9848 48.9204C57.8343 48.6886 57.5424 48.6015 57.2755 48.53C57.008 48.4583 56.711 48.3873 56.4643 48.5131L52.7803 50.3917L56.2464 48.1412C56.4794 47.9899 56.5666 47.6958 56.6381 47.4273C56.7093 47.1596 56.78 46.8624 56.6542 46.6156L54.7784 42.9346L57.0238 46.3957Z" fill="white"/>
</g>
<g opacity="0.2">
<circle cx="24.1675" cy="49.7925" r="18.7735" fill="#E8B500" stroke="#DF8D12" stroke-width="3.17299"/>
<g filter="url(#filter4_g_1279_2178)">
<circle cx="24.1027" cy="49.4288" r="14.2785" fill="#FFD12D"/>
</g>
<path d="M14.6128 37.4222C14.3797 37.1196 13.9444 37.0621 13.6521 37.308C11.7762 38.8863 10.2859 40.8729 9.29566 43.1155C9.14137 43.4649 9.31835 43.8668 9.67409 44.0059V44.0059C10.0298 44.1451 10.4295 43.9686 10.5852 43.6199C11.4821 41.6106 12.8191 39.8283 14.4971 38.4049C14.7884 38.1578 14.8459 37.7247 14.6128 37.4222V37.4222Z" fill="#FFDD64"/>
<path d="M16.8962 32.3698C16.7765 32.0823 16.446 31.9455 16.1621 32.0736C13.3095 33.3604 10.8117 35.3207 8.88366 37.7857C8.6918 38.031 8.74607 38.3846 8.99686 38.5692V38.5692C9.24764 38.7538 9.59993 38.6996 9.79223 38.4546C11.5982 36.1542 13.9321 34.3226 16.5959 33.1151C16.8795 32.9865 17.016 32.6572 16.8962 32.3698V32.3698Z" fill="#F59F1E"/>
<path d="M19.2031 61.8044C19.1196 61.7779 19.0733 61.6887 19.0998 61.6052L19.6877 59.7517C19.7131 59.6716 19.6707 59.5854 19.5926 59.5545C15.4436 57.9189 13.3502 55.0321 14.133 51.94C14.155 51.8533 14.2462 51.8038 14.3315 51.8309L18.0755 53.0184C18.1577 53.0445 18.2035 53.1316 18.1837 53.2156C17.8574 54.5976 18.6806 55.8112 20.4914 56.6401C20.5768 56.6792 20.6766 56.6338 20.705 56.5443L22.3597 51.3275C22.3829 51.2542 22.3503 51.1748 22.2823 51.1391L21.4453 50.6988C17.6822 48.7365 16.2643 46.2935 17.167 43.4477C18.1165 40.4542 21.5228 39.1589 25.7771 40.0706C25.8576 40.0879 25.9393 40.0418 25.9641 39.9633L26.5697 38.0542C26.5962 37.9707 26.6853 37.9244 26.7689 37.9509L28.9014 38.6273C28.985 38.6538 29.0312 38.743 29.0047 38.8265L28.3993 40.7354C28.3743 40.814 28.4147 40.8988 28.4906 40.9311C32.21 42.513 33.9799 45.2414 33.2349 48.2848C33.2135 48.3724 33.1217 48.4227 33.0358 48.3955L29.4165 47.2475C29.3356 47.2219 29.2897 47.1371 29.3079 47.0542C29.5934 45.7519 28.9851 44.6371 27.6022 43.8615C27.5164 43.8134 27.4089 43.8578 27.3791 43.9516L25.7115 49.2094C25.6885 49.2819 25.7202 49.3606 25.787 49.3968L26.6814 49.8823C30.4995 51.8906 31.825 54.0764 30.9551 56.8188C29.965 59.9407 26.6192 61.2569 22.3269 60.3602C22.2466 60.3434 22.1654 60.3895 22.1406 60.4677L21.5349 62.3776C21.5084 62.4611 21.4192 62.5073 21.3357 62.4808L19.2031 61.8044ZM23.258 48.0562C23.3191 48.0903 23.3961 48.0598 23.4173 47.9931L24.9543 43.147C24.9834 43.0554 24.9249 42.959 24.8298 42.9449C22.9433 42.6662 21.5824 43.2435 21.1528 44.598C20.7179 45.9692 21.349 47.052 23.258 48.0562ZM24.9085 52.5091L24.8755 52.4894C24.7876 52.4372 24.674 52.4804 24.6431 52.5778L23.1599 57.2541C23.1303 57.3474 23.1914 57.4451 23.2885 57.4569C25.1873 57.6888 26.5381 57.1379 26.9435 55.8596C27.362 54.5402 26.6993 53.4473 24.9085 52.5091Z" fill="white"/>
<g filter="url(#filter5_f_1279_2178)">
<ellipse cx="27.9736" cy="65.1896" rx="8.13374" ry="6.3908" fill="#FFD12D"/>
</g>
</g>
</g>
<defs>
<filter id="filter0_f_1279_2178" x="23.7909" y="20.9217" width="60.6526" height="57.1682" filterUnits="userSpaceOnUse" color-interpolation-filters="sRGB">
<feFlood flood-opacity="0" result="BackgroundImageFix"/>
<feBlend mode="normal" in="SourceGraphic" in2="BackgroundImageFix" result="shape"/>
<feGaussianBlur stdDeviation="11.0967" result="effect1_foregroundBlur_1279_2178"/>
</filter>
<filter id="filter1_g_1279_2178" x="26.2366" y="19.053" width="34.6011" height="34.6011" filterUnits="userSpaceOnUse" color-interpolation-filters="sRGB">
<feFlood flood-opacity="0" result="BackgroundImageFix"/>
<feBlend mode="normal" in="SourceGraphic" in2="BackgroundImageFix" result="shape"/>
<feTurbulence type="fractalNoise" baseFrequency="0.99900001287460327 0.99900001287460327" numOctaves="3" seed="2588" />
<feDisplacementMap in="shape" scale="3.5893332958221436" xChannelSelector="R" yChannelSelector="G" result="displacedImage" width="100%" height="100%" />
<feMerge result="effect1_texture_1279_2178">
<feMergeNode in="displacedImage"/>
</feMerge>
</filter>
<filter id="filter2_d_1279_2178" x="20.5347" y="14.9391" width="46.0049" height="45.6104" filterUnits="userSpaceOnUse" color-interpolation-filters="sRGB">
<feFlood flood-opacity="0" result="BackgroundImageFix"/>
<feColorMatrix in="SourceAlpha" type="matrix" values="0 0 0 0 0 0 0 0 0 0 0 0 0 0 0 0 0 0 127 0" result="hardAlpha"/>
<feOffset dy="1.78916"/>
<feGaussianBlur stdDeviation="4.4729"/>
<feComposite in2="hardAlpha" operator="out"/>
<feColorMatrix type="matrix" values="0 0 0 0 0.401233 0 0 0 0 0.849297 0 0 0 0 0.871154 0 0 0 1 0"/>
<feBlend mode="normal" in2="BackgroundImageFix" result="effect1_dropShadow_1279_2178"/>
<feBlend mode="normal" in="SourceGraphic" in2="effect1_dropShadow_1279_2178" result="shape"/>
</filter>
<filter id="filter3_g_1279_2178" x="26.8294" y="19.429" width="33.4232" height="32.9974" filterUnits="userSpaceOnUse" color-interpolation-filters="sRGB">
<feFlood flood-opacity="0" result="BackgroundImageFix"/>
<feBlend mode="normal" in="SourceGraphic" in2="BackgroundImageFix" result="shape"/>
<feTurbulence type="fractalNoise" baseFrequency="0.99900001287460327 0.99900001287460327" numOctaves="3" seed="8829" />
<feDisplacementMap in="shape" scale="5.4271197319030762" xChannelSelector="R" yChannelSelector="G" result="displacedImage" width="100%" height="100%" />
<feMerge result="effect1_texture_1279_2178">
<feMergeNode in="displacedImage"/>
</feMerge>
</filter>
<filter id="filter4_g_1279_2178" x="7.62077" y="32.9469" width="32.9655" height="32.9635" filterUnits="userSpaceOnUse" color-interpolation-filters="sRGB">
<feFlood flood-opacity="0" result="BackgroundImageFix"/>
<feBlend mode="normal" in="SourceGraphic" in2="BackgroundImageFix" result="shape"/>
<feTurbulence type="fractalNoise" baseFrequency="0.99900001287460327 0.99900001287460327" numOctaves="3" seed="2588" />
<feDisplacementMap in="shape" scale="4.4068913459777832" xChannelSelector="R" yChannelSelector="G" result="displacedImage" width="100%" height="100%" />
<feMerge result="effect1_texture_1279_2178">
<feMergeNode in="displacedImage"/>
</feMerge>
</filter>
<filter id="filter5_f_1279_2178" x="-2.35365" y="36.6053" width="60.6526" height="57.1682" filterUnits="userSpaceOnUse" color-interpolation-filters="sRGB">
<feFlood flood-opacity="0" result="BackgroundImageFix"/>
<feBlend mode="normal" in="SourceGraphic" in2="BackgroundImageFix" result="shape"/>
<feGaussianBlur stdDeviation="11.0967" result="effect1_foregroundBlur_1279_2178"/>
</filter>
<clipPath id="clip0_1279_2178">
<rect width="408" height="54" fill="white"/>
</clipPath>
</defs>
</svg>
