<svg width="162" height="116" viewBox="0 0 162 116" fill="none" xmlns="http://www.w3.org/2000/svg">
<g clip-path="url(#clip0_1279_2261)">
<rect width="162" height="116" fill="#1C1C1E" fill-opacity="0.6"/>
<g opacity="0.1">
<path d="M179.827 48.3772C179.827 33.278 175.724 15.696 164.736 4.70794C153.819 -6.2089 136.384 -10.0371 121.414 -10.0371C106.861 -10.0371 92.5706 -5.73735 82.1158 4.70794C70.768 16.0444 63 32.2117 63 48.3772C63 64.177 71.2972 76.5104 82.1158 87.3291C93.0037 98.217 105.489 106.792 121.414 106.792C137.639 106.792 153.407 98.6674 164.736 87.3291C175.175 76.8799 179.827 63.001 179.827 48.3772Z" stroke="#8E8E93" stroke-miterlimit="10"/>
<path d="M122.756 99.9103C109.803 99.8468 97.9604 90.1695 88.4044 80.6038C79.039 71.2286 69.6716 59.744 69.6524 46.8062C69.6312 32.5 77.6282 16.2614 88.4064 5.49472C97.6101 -3.69567 110.852 -6.35752 122.756 -6.29785C135.678 -6.23434 153.216 -4.7735 163.522 5.48702C173.916 15.838 175.794 33.6106 175.859 46.8062C175.919 58.8336 172.62 71.4846 163.515 80.6038C152.8 91.332 136.843 99.9777 122.756 99.9103Z" stroke="#8E8E93" stroke-miterlimit="10"/>
<path d="M174.137 42.5954C174.025 30.8933 172.886 14.4603 163.38 5.0005C154.005 -4.32847 137.684 -5.12144 126.343 -5.20036C101.946 -5.36588 78.3538 19.6609 78.552 42.5935C78.6463 53.7567 87.4786 64.3059 95.7778 72.6033C104.279 81.1065 115.194 90.2488 126.343 90.3874C148.121 90.6588 174.368 66.7349 174.137 42.5954Z" stroke="#8E8E93" stroke-miterlimit="10"/>
<path d="M131.685 78.8202C121.779 78.8029 111.74 70.9001 104.209 63.3688C96.7352 55.8933 89.2848 46.2294 89.1963 36.3365C89.0308 16.2312 109.869 -6.34728 131.679 -6.14712C141.786 -6.05281 156.011 -4.9923 164.289 3.28386C172.656 11.6486 174.065 25.9509 174.163 36.3365C174.371 57.9046 151.074 78.8549 131.685 78.8202Z" stroke="#8E8E93" stroke-miterlimit="10"/>
<path d="M175.44 28.6163C175.399 19.3605 173.351 7.61795 166.161 0.436932C158.97 -6.74408 147.424 -8.46283 138.253 -8.55714C118.706 -8.74961 101.044 10.2047 101.082 28.6163C101.117 45.415 121.716 65.7628 138.253 65.7878C156.137 65.8244 175.532 47.8959 175.44 28.6163Z" stroke="#8E8E93" stroke-miterlimit="10"/>
<path d="M145.601 51.8827C129.663 51.8827 113.746 36.0406 113.738 20.0195C113.738 3.08225 128.41 -11.8514 145.601 -11.8418C163.572 -11.8418 177.453 2.0025 177.462 20.0195C177.472 37.1185 162.313 51.8904 145.601 51.8827Z" stroke="#8E8E93" stroke-miterlimit="10"/>
<path d="M179.732 11.1354C179.721 -2.86098 167.289 -15.485 153.172 -15.4157C139.228 -15.3464 126.611 -3.19011 126.621 11.145C126.621 25.3165 139.024 37.6903 153.182 37.7057C167.455 37.6961 179.742 25.0605 179.732 11.1354Z" stroke="#8E8E93" stroke-miterlimit="10"/>
<path d="M160.501 23.7921C149.01 23.8864 139.3 14.0128 139.258 2.55124C139.216 -8.61388 150.157 -18.859 160.501 -18.6973C170.509 -18.5337 181.699 -7.94024 181.741 2.54546C181.785 13.2525 171.504 23.7016 160.501 23.7921Z" stroke="#8E8E93" stroke-miterlimit="10"/>
<path d="M182.998 -5.14892C182.925 -12.3588 174.112 -21.0084 167.068 -21.0796C159.837 -21.1527 151.064 -13.3231 151.137 -5.14892C151.212 3.5218 158.464 10.7067 167.068 10.7817C175.242 10.8549 183.075 2.3131 182.998 -5.14892Z" stroke="#8E8E93" stroke-miterlimit="10"/>
<path d="M177.229 -17.0625C177.114 -7.6142 171.071 2.54046 167.065 10.7858C161.484 22.2724 155.408 33.5203 149.391 44.7835C143.176 56.4144 136.908 68.028 131.159 79.9014C127.284 87.9293 121.608 97.6317 121.414 106.791" stroke="#8E8E93" stroke-miterlimit="10"/>
<path d="M177.229 -17.0625C181.986 -10.9843 178.206 0.837107 176.636 7.43494C174.193 17.6974 171.025 27.777 168.113 37.9124C163.361 54.4647 156.646 73.9445 160.324 91.3341" stroke="#8E8E93" stroke-miterlimit="10"/>
<path d="M177.228 -17.0621C171.976 -22.2357 160.832 -17.6395 155.094 -15.6975C146.305 -12.7065 137.772 -8.9861 129.158 -5.54283C115.398 -0.0439959 97.6662 8.27066 82.4883 4.34045" stroke="#8E8E93" stroke-miterlimit="10"/>
<path d="M177.23 -17.0617C168.781 -18.4956 158.109 -11.559 151.128 -7.77317C140.775 -2.15885 130.75 4.06175 120.699 10.1726C110.477 16.3875 100.249 22.6504 89.6426 28.1954C82.0209 32.1795 72.9961 37.2299 64.1484 37.4339" stroke="#8E8E93" stroke-miterlimit="10"/>
<path d="M177.231 -17.0625C167.906 -12.8744 159.716 -4.74449 151.998 1.78213C142.14 10.1141 132.457 18.652 122.732 27.138C105.483 42.1871 88.2899 58.52 68.7969 70.6783" stroke="#8E8E93" stroke-miterlimit="10"/>
<path d="M177.228 -17.0625C164.261 2.85803 148.319 21.1618 133.722 39.8833C119.391 58.2756 104.875 76.5909 91.3008 95.5607" stroke="#8E8E93" stroke-miterlimit="10"/>
</g>
</g>
<defs>
<clipPath id="clip0_1279_2261">
<rect width="162" height="116" fill="white"/>
</clipPath>
</defs>
</svg>
