<svg width="180" height="180" viewBox="0 0 180 180" fill="none" xmlns="http://www.w3.org/2000/svg">
<path d="M70.0595 136.099C70.1651 135.88 70.1453 135.651 70.0476 135.466L69.7928 134.627L67.522 135.468L65.8942 135.807C65.6671 135.855 65.4308 135.787 65.2618 135.626L62.7613 133.239C62.3376 132.835 61.6352 133.091 61.5718 133.674L61.1982 137.11C61.1731 137.341 61.0358 137.545 60.8312 137.655L59.1162 138.58L57.1953 139.291L57.4501 140.129C57.5056 140.31 57.6349 140.47 57.8343 140.56L60.987 141.976C61.1995 142.072 61.35 142.266 61.3923 142.494L61.8081 144.777L61.7646 145.104L62.0181 145.919C62.0273 145.96 62.0392 145.999 62.055 146.036V146.041H62.0577C62.2478 146.501 62.8736 146.636 63.23 146.242L65.5523 143.682C65.7081 143.511 65.9391 143.426 66.1701 143.456L69.5948 143.917C70.1202 143.988 70.511 143.484 70.3631 143.01L70.1295 142.255L69.6357 141.702L68.5848 139.867C68.47 139.665 68.4607 139.419 68.5611 139.211L70.0582 136.095L70.0595 136.099Z" fill="url(#paint0_radial_1279_2224)"/>
<path d="M69.3438 143.081L65.9192 142.621C65.6895 142.59 65.4584 142.673 65.3013 142.846L62.9791 145.406C62.5856 145.839 61.8661 145.635 61.7618 145.059L61.1426 141.659C61.1004 141.431 60.9499 141.237 60.7373 141.142L57.5847 139.725C57.0513 139.485 57.0236 138.738 57.5384 138.459L60.5802 136.819C60.7849 136.709 60.9222 136.505 60.9472 136.274L61.3209 132.838C61.3842 132.255 62.0866 131.999 62.5104 132.403L65.0109 134.79C65.1785 134.951 65.4149 135.019 65.6433 134.971L69.027 134.265C69.5999 134.145 70.0607 134.735 69.8072 135.262L68.3101 138.377C68.2097 138.587 68.2177 138.833 68.3339 139.033L70.0515 142.033C70.3419 142.541 69.9247 143.162 69.3438 143.084V143.081Z" fill="url(#paint1_radial_1279_2224)"/>
<path d="M62.0263 132.355C62.1267 132.355 62.2732 132.381 62.4079 132.511L64.9084 134.898C65.0681 135.049 65.278 135.134 65.4985 135.134C65.5566 135.134 65.616 135.127 65.6728 135.115L69.0565 134.409C69.0961 134.401 69.1357 134.397 69.1753 134.397C69.3654 134.397 69.5397 134.496 69.644 134.66C69.7483 134.825 69.7588 135.02 69.673 135.197L68.1759 138.313C68.0544 138.567 68.065 138.864 68.2049 139.108L69.9225 142.107C70.0229 142.282 70.0229 142.49 69.9225 142.663C69.8209 142.839 69.6427 142.943 69.4433 142.943C69.4169 142.943 69.3905 142.942 69.3641 142.938L65.9381 142.477C65.8999 142.472 65.8616 142.469 65.8246 142.469C65.5843 142.469 65.3533 142.571 65.1922 142.749L62.87 145.309C62.763 145.428 62.6165 145.492 62.4607 145.492C62.2349 145.492 61.9656 145.348 61.9075 145.034L61.2883 141.633C61.2382 141.356 61.0547 141.122 60.7985 141.008L57.6459 139.591C57.4478 139.503 57.325 139.319 57.3171 139.103C57.3092 138.886 57.4188 138.695 57.6102 138.592L60.652 136.952C60.8989 136.819 61.0652 136.572 61.0956 136.292L61.4692 132.855C61.5049 132.532 61.7834 132.356 62.0277 132.356M62.0277 132.208C61.6897 132.208 61.3636 132.451 61.3213 132.839L60.9477 136.276C60.9226 136.507 60.7853 136.71 60.5807 136.821L57.5389 138.461C57.024 138.738 57.0504 139.487 57.5851 139.727L60.7378 141.144C60.9504 141.239 61.1009 141.433 61.1431 141.661L61.7623 145.062C61.8283 145.426 62.1412 145.642 62.4607 145.642C62.6468 145.642 62.8356 145.569 62.9795 145.409L65.3018 142.849C65.4365 142.7 65.6266 142.617 65.8246 142.617C65.8563 142.617 65.888 142.62 65.9183 142.624L69.3443 143.084C69.3773 143.088 69.4103 143.091 69.4433 143.091C69.9701 143.091 70.3252 142.513 70.0519 142.033L68.3343 139.034C68.2195 138.832 68.2102 138.586 68.3106 138.378L69.8077 135.262C70.0387 134.781 69.6757 134.249 69.1766 134.249C69.1278 134.249 69.0776 134.255 69.0274 134.265L65.6437 134.972C65.5962 134.982 65.5474 134.986 65.4998 134.986C65.3203 134.986 65.1447 134.917 65.0127 134.791L62.5122 132.404C62.3709 132.269 62.198 132.207 62.029 132.207L62.0277 132.208Z" fill="url(#paint2_linear_1279_2224)"/>
<g style="mix-blend-mode:multiply" opacity="0.3">
<path d="M69.3438 143.081L65.9192 142.621C65.6895 142.59 65.4584 142.673 65.3013 142.846L62.9791 145.406C62.5856 145.839 61.8661 145.635 61.7618 145.059L61.1426 141.659C61.1004 141.431 60.9499 141.237 60.7373 141.142L57.5847 139.725C57.0513 139.485 57.0236 138.738 57.5384 138.459L60.5802 136.819C60.7849 136.709 60.9222 136.505 60.9472 136.274L61.3209 132.838C61.3842 132.255 62.0866 131.999 62.5104 132.403L65.0109 134.79C65.1785 134.951 65.4149 135.019 65.6433 134.971L69.027 134.265C69.5999 134.145 70.0607 134.735 69.8072 135.262L68.3101 138.377C68.2097 138.587 68.2177 138.833 68.3339 139.033L70.0515 142.033C70.3419 142.541 69.9247 143.162 69.3438 143.084V143.081Z" fill="#DD8731"/>
<path d="M62.0263 132.355C62.1267 132.355 62.2732 132.381 62.4079 132.511L64.9084 134.898C65.0681 135.049 65.278 135.134 65.4985 135.134C65.5566 135.134 65.616 135.127 65.6728 135.115L69.0565 134.409C69.0961 134.401 69.1357 134.397 69.1753 134.397C69.3654 134.397 69.5397 134.496 69.644 134.66C69.7483 134.825 69.7588 135.02 69.673 135.197L68.1759 138.313C68.0544 138.567 68.065 138.864 68.2049 139.108L69.9225 142.107C70.0229 142.282 70.0229 142.49 69.9225 142.663C69.8209 142.839 69.6427 142.943 69.4433 142.943C69.4169 142.943 69.3905 142.942 69.3641 142.938L65.9381 142.477C65.8999 142.472 65.8616 142.469 65.8246 142.469C65.5843 142.469 65.3533 142.571 65.1922 142.749L62.87 145.309C62.763 145.428 62.6165 145.492 62.4607 145.492C62.2349 145.492 61.9656 145.348 61.9075 145.034L61.2883 141.633C61.2382 141.356 61.0547 141.122 60.7985 141.008L57.6459 139.591C57.4478 139.503 57.325 139.319 57.3171 139.103C57.3092 138.886 57.4188 138.695 57.6102 138.592L60.652 136.952C60.8989 136.819 61.0652 136.572 61.0956 136.292L61.4692 132.855C61.5049 132.532 61.7834 132.356 62.0277 132.356M62.0277 132.208C61.6897 132.208 61.3636 132.451 61.3213 132.839L60.9477 136.276C60.9226 136.507 60.7853 136.71 60.5807 136.821L57.5389 138.461C57.024 138.738 57.0504 139.487 57.5851 139.727L60.7378 141.144C60.9504 141.239 61.1009 141.433 61.1431 141.661L61.7623 145.062C61.8283 145.426 62.1412 145.642 62.4607 145.642C62.6468 145.642 62.8356 145.569 62.9795 145.409L65.3018 142.849C65.4365 142.7 65.6266 142.617 65.8246 142.617C65.8563 142.617 65.888 142.62 65.9183 142.624L69.3443 143.084C69.3773 143.088 69.4103 143.091 69.4433 143.091C69.9701 143.091 70.3252 142.513 70.0519 142.033L68.3343 139.034C68.2195 138.832 68.2102 138.586 68.3106 138.378L69.8077 135.262C70.0387 134.781 69.6757 134.249 69.1766 134.249C69.1278 134.249 69.0776 134.255 69.0274 134.265L65.6437 134.972C65.5962 134.982 65.5474 134.986 65.4998 134.986C65.3203 134.986 65.1447 134.917 65.0127 134.791L62.5122 132.404C62.3709 132.269 62.198 132.207 62.029 132.207L62.0277 132.208Z" fill="#DD8731"/>
</g>
<path d="M72.069 146.537C76.5597 142.047 76.5597 134.766 72.069 130.275C67.5783 125.785 60.2975 125.785 55.8069 130.275C51.3162 134.766 51.3162 142.047 55.8069 146.537C60.2975 151.028 67.5783 151.028 72.069 146.537Z" fill="url(#paint3_radial_1279_2224)" style="mix-blend-mode:screen"/>
<path d="M123.859 77.2307C124.443 76.0179 124.334 74.7538 123.793 73.7309L122.383 69.084L109.815 73.7382L100.807 75.616C99.5499 75.879 98.242 75.5064 97.3068 74.615L83.4683 61.4049C81.1229 59.1691 77.2358 60.5865 76.8851 63.8087L74.8174 82.8275C74.6785 84.1062 73.9187 85.2313 72.7862 85.8451L63.295 90.9596L52.6641 94.8979L54.0742 99.5375C54.3811 100.538 55.0971 101.423 56.2004 101.919L73.6483 109.759C74.8247 110.285 75.6576 111.359 75.8914 112.623L78.193 125.256L77.9519 127.068L79.3547 131.576C79.4058 131.803 79.4716 132.022 79.5593 132.227V132.256H79.5739C80.626 134.799 84.0893 135.544 86.0621 133.367L98.9142 119.199C99.7764 118.249 101.055 117.782 102.334 117.95L121.287 120.5C124.195 120.894 126.357 118.103 125.539 115.48L124.246 111.301L121.513 108.24L115.697 98.0835C115.062 96.9656 115.01 95.6066 115.566 94.4522L123.851 77.2088L123.859 77.2307Z" fill="url(#paint4_radial_1279_2224)"/>
<path d="M119.885 115.867L100.932 113.317C99.6607 113.149 98.382 113.609 97.5126 114.566L84.6604 128.734C82.4831 131.13 78.5011 129.998 77.9238 126.812L74.4971 107.998C74.2633 106.734 73.4303 105.66 72.254 105.134L54.8061 97.2939C51.8543 95.9641 51.7008 91.8287 54.5503 90.287L71.3845 81.2123C72.517 80.5986 73.2769 79.4734 73.4157 78.1947L75.4835 59.1759C75.8342 55.9537 79.7212 54.5363 82.0666 56.7721L95.9051 69.9822C96.8331 70.8736 98.1409 71.2462 99.4049 70.9832L118.132 67.0742C121.303 66.4093 123.853 69.6754 122.45 72.5906L114.164 89.834C113.609 90.9957 113.653 92.3547 114.296 93.4653L123.801 110.066C125.409 112.879 123.1 116.313 119.885 115.882V115.867Z" fill="url(#paint5_radial_1279_2224)"/>
<path d="M79.3878 56.5039C79.9431 56.5039 80.7541 56.65 81.4994 57.3661L95.3379 70.5762C96.222 71.4164 97.3837 71.8841 98.6039 71.8841C98.9254 71.8841 99.2542 71.8475 99.5683 71.7818L118.295 67.8728C118.514 67.8289 118.733 67.807 118.952 67.807C120.005 67.807 120.969 68.355 121.546 69.261C122.123 70.1743 122.182 71.2557 121.707 72.2348L113.421 89.4781C112.749 90.8809 112.808 92.5249 113.582 93.8766L123.088 110.477C123.643 111.441 123.643 112.596 123.088 113.553C122.525 114.525 121.539 115.102 120.436 115.102C120.29 115.102 120.143 115.095 119.997 115.073L101.037 112.523C100.825 112.494 100.613 112.479 100.409 112.479C99.0788 112.479 97.8002 113.042 96.9088 114.028L84.0566 128.195C83.4648 128.853 82.6538 129.211 81.7916 129.211C80.5422 129.211 79.0517 128.414 78.7302 126.675L75.3034 107.854C75.0258 106.32 74.0102 105.026 72.5927 104.391L55.1448 96.5508C54.0488 96.0613 53.3693 95.0457 53.3255 93.8474C53.2817 92.6491 53.8881 91.5897 54.9475 91.0198L71.7817 81.9451C73.148 81.2071 74.0686 79.8408 74.2367 78.2919L76.3044 59.273C76.5017 57.4829 78.0434 56.5112 79.3951 56.5112M79.3951 55.6929C77.5246 55.6929 75.7199 57.0373 75.4861 59.1854L73.4184 78.2042C73.2795 79.4828 72.5197 80.608 71.3872 81.2218L54.553 90.2964C51.7035 91.8308 51.8496 95.9736 54.8087 97.3034L72.2566 105.143C73.433 105.669 74.2659 106.743 74.4997 108.007L77.9265 126.829C78.2918 128.846 80.0235 130.036 81.7916 130.036C82.8218 130.036 83.8667 129.635 84.6631 128.751L97.5152 114.583C98.2605 113.758 99.3126 113.297 100.409 113.297C100.584 113.297 100.759 113.312 100.927 113.334L119.888 115.884C120.07 115.906 120.253 115.92 120.436 115.92C123.351 115.92 125.316 112.72 123.804 110.068L114.298 93.4674C113.663 92.3495 113.611 90.9905 114.167 89.8361L122.452 72.5928C123.731 69.9332 121.722 66.9887 118.96 66.9887C118.689 66.9887 118.412 67.0179 118.134 67.0764L99.4076 70.9854C99.1446 71.0438 98.8742 71.0657 98.6112 71.0657C97.6175 71.0657 96.6457 70.6858 95.9151 69.9844L82.0766 56.7742C81.2948 56.0289 80.3376 55.6855 79.4024 55.6855L79.3951 55.6929Z" fill="url(#paint6_linear_1279_2224)"/>
<g style="mix-blend-mode:multiply" opacity="0.3">
<path d="M119.885 115.867L100.932 113.317C99.6607 113.149 98.382 113.609 97.5126 114.566L84.6604 128.734C82.4831 131.13 78.5011 129.998 77.9238 126.812L74.4971 107.998C74.2633 106.734 73.4303 105.66 72.254 105.134L54.8061 97.2939C51.8543 95.9641 51.7008 91.8287 54.5503 90.287L71.3845 81.2123C72.517 80.5986 73.2769 79.4734 73.4157 78.1947L75.4835 59.1759C75.8342 55.9537 79.7212 54.5363 82.0666 56.7721L95.9051 69.9822C96.8331 70.8736 98.1409 71.2462 99.4049 70.9832L118.132 67.0742C121.303 66.4093 123.853 69.6754 122.45 72.5906L114.164 89.834C113.609 90.9957 113.653 92.3547 114.296 93.4653L123.801 110.066C125.409 112.879 123.1 116.313 119.885 115.882V115.867Z" fill="#DD8731"/>
<path d="M79.3878 56.5039C79.9431 56.5039 80.7541 56.65 81.4994 57.3661L95.3379 70.5762C96.222 71.4164 97.3837 71.8841 98.6039 71.8841C98.9254 71.8841 99.2542 71.8475 99.5683 71.7818L118.295 67.8728C118.514 67.8289 118.733 67.807 118.952 67.807C120.005 67.807 120.969 68.355 121.546 69.261C122.123 70.1743 122.182 71.2557 121.707 72.2348L113.421 89.4781C112.749 90.8809 112.808 92.5249 113.582 93.8766L123.088 110.477C123.643 111.441 123.643 112.596 123.088 113.553C122.525 114.525 121.539 115.102 120.436 115.102C120.29 115.102 120.143 115.095 119.997 115.073L101.037 112.523C100.825 112.494 100.613 112.479 100.409 112.479C99.0788 112.479 97.8002 113.042 96.9088 114.028L84.0566 128.195C83.4648 128.853 82.6538 129.211 81.7916 129.211C80.5422 129.211 79.0517 128.414 78.7302 126.675L75.3034 107.854C75.0258 106.32 74.0102 105.026 72.5927 104.391L55.1448 96.5508C54.0488 96.0613 53.3693 95.0457 53.3255 93.8474C53.2817 92.6491 53.8881 91.5897 54.9475 91.0198L71.7817 81.9451C73.148 81.2071 74.0686 79.8408 74.2367 78.2919L76.3044 59.273C76.5017 57.4829 78.0434 56.5112 79.3951 56.5112M79.3951 55.6929C77.5246 55.6929 75.7199 57.0373 75.4861 59.1854L73.4184 78.2042C73.2795 79.4828 72.5197 80.608 71.3872 81.2218L54.553 90.2964C51.7035 91.8308 51.8496 95.9736 54.8087 97.3034L72.2566 105.143C73.433 105.669 74.2659 106.743 74.4997 108.007L77.9265 126.829C78.2918 128.846 80.0235 130.036 81.7916 130.036C82.8218 130.036 83.8667 129.635 84.6631 128.751L97.5152 114.583C98.2605 113.758 99.3126 113.297 100.409 113.297C100.584 113.297 100.759 113.312 100.927 113.334L119.888 115.884C120.07 115.906 120.253 115.92 120.436 115.92C123.351 115.92 125.316 112.72 123.804 110.068L114.298 93.4674C113.663 92.3495 113.611 90.9905 114.167 89.8361L122.452 72.5928C123.731 69.9332 121.722 66.9887 118.96 66.9887C118.689 66.9887 118.412 67.0179 118.134 67.0764L99.4076 70.9854C99.1446 71.0438 98.8742 71.0657 98.6112 71.0657C97.6175 71.0657 96.6457 70.6858 95.9151 69.9844L82.0766 56.7742C81.2948 56.0289 80.3376 55.6855 79.4024 55.6855L79.3951 55.6929Z" fill="#DD8731"/>
</g>
<path d="M135 135C159.853 110.147 159.853 69.8528 135 45C110.147 20.1472 69.8528 20.1472 45 45C20.1472 69.8528 20.1472 110.147 45 135C69.8528 159.853 110.147 159.853 135 135Z" fill="url(#paint7_radial_1279_2224)" style="mix-blend-mode:screen"/>
<path d="M49.5911 117.123C49.772 116.748 49.7381 116.357 49.5707 116.04L49.1343 114.602L45.2444 116.042L42.4559 116.624C42.067 116.705 41.6621 116.59 41.3727 116.314L37.0893 112.225C36.3634 111.533 35.1602 111.972 35.0517 112.969L34.4117 118.856C34.3687 119.252 34.1335 119.6 33.783 119.79L30.8452 121.373L27.5547 122.592L27.9912 124.028C28.0862 124.338 28.3078 124.611 28.6493 124.765L34.0498 127.192C34.4139 127.355 34.6717 127.687 34.7441 128.078L35.4565 131.989L35.3819 132.549L35.8161 133.945C35.8319 134.015 35.8523 134.083 35.8794 134.146V134.155H35.8839C36.2096 134.942 37.2816 135.173 37.8922 134.499L41.8702 130.114C42.1371 129.82 42.5328 129.675 42.9286 129.727L48.795 130.516C49.6951 130.638 50.3645 129.774 50.1112 128.963L49.7109 127.669L48.8651 126.721L47.065 123.578C46.8682 123.232 46.8524 122.811 47.0242 122.454L49.5888 117.117L49.5911 117.123Z" fill="url(#paint8_radial_1279_2224)"/>
<path d="M48.3573 129.081L42.4909 128.291C42.0974 128.239 41.7016 128.382 41.4325 128.678L37.4544 133.063C36.7805 133.805 35.5479 133.455 35.3693 132.469L34.3086 126.645C34.2363 126.254 33.9784 125.921 33.6143 125.759L28.2138 123.332C27.3001 122.92 27.2526 121.64 28.1346 121.163L33.3452 118.354C33.6957 118.164 33.9309 117.816 33.9739 117.42L34.6139 111.533C34.7225 110.536 35.9256 110.097 36.6516 110.789L40.9349 114.878C41.2221 115.154 41.627 115.27 42.0182 115.188L47.8145 113.978C48.796 113.772 49.5853 114.783 49.1511 115.686L46.5865 121.023C46.4146 121.382 46.4282 121.803 46.6272 122.147L49.5695 127.285C50.067 128.156 49.3524 129.219 48.3573 129.085V129.081Z" fill="url(#paint9_radial_1279_2224)"/>
<path d="M35.8224 110.706C35.9943 110.706 36.2453 110.752 36.476 110.973L40.7593 115.062C41.033 115.322 41.3926 115.467 41.7702 115.467C41.8698 115.467 41.9715 115.456 42.0688 115.435L47.8651 114.225C47.9329 114.212 48.0008 114.205 48.0686 114.205C48.3943 114.205 48.6928 114.375 48.8715 114.655C49.0501 114.938 49.0682 115.272 48.9212 115.576L46.3566 120.913C46.1486 121.347 46.1667 121.856 46.4064 122.274L49.3486 127.412C49.5205 127.711 49.5205 128.068 49.3486 128.364C49.1745 128.665 48.8692 128.844 48.5277 128.844C48.4825 128.844 48.4373 128.842 48.392 128.835L42.5233 128.046C42.4578 128.037 42.3922 128.032 42.3288 128.032C41.9172 128.032 41.5215 128.206 41.2456 128.511L37.2675 132.897C37.0843 133.1 36.8333 133.211 36.5665 133.211C36.1797 133.211 35.7184 132.964 35.6189 132.426L34.5582 126.6C34.4723 126.126 34.1579 125.725 33.7192 125.529L28.3186 123.102C27.9794 122.95 27.7691 122.636 27.7555 122.265C27.7419 121.894 27.9296 121.566 28.2576 121.39L33.4681 118.581C33.8911 118.353 34.176 117.93 34.228 117.45L34.868 111.564C34.9291 111.009 35.4063 110.709 35.8247 110.709M35.8247 110.455C35.2457 110.455 34.6871 110.872 34.6147 111.536L33.9747 117.423C33.9318 117.819 33.6966 118.167 33.346 118.357L28.1355 121.166C27.2535 121.641 27.2987 122.923 28.2146 123.335L33.6151 125.761C33.9793 125.924 34.2371 126.257 34.3094 126.648L35.3701 132.474C35.4832 133.098 36.0192 133.467 36.5665 133.467C36.8853 133.467 37.2087 133.342 37.4552 133.068L41.4333 128.683C41.664 128.428 41.9896 128.285 42.3288 128.285C42.3831 128.285 42.4374 128.29 42.4894 128.297L48.3581 129.086C48.4146 129.093 48.4712 129.097 48.5277 129.097C49.4301 129.097 50.0384 128.107 49.5703 127.286L46.628 122.148C46.4313 121.802 46.4154 121.381 46.5873 121.024L49.1519 115.686C49.5477 114.863 48.9257 113.952 48.0709 113.952C47.9872 113.952 47.9013 113.961 47.8153 113.979L42.019 115.189C41.9376 115.207 41.8539 115.214 41.7725 115.214C41.4649 115.214 41.1642 115.096 40.938 114.879L36.6547 110.79C36.4127 110.559 36.1164 110.453 35.8269 110.453L35.8247 110.455Z" fill="url(#paint10_linear_1279_2224)"/>
<g style="mix-blend-mode:multiply" opacity="0.3">
<path d="M48.3573 129.081L42.4909 128.291C42.0974 128.239 41.7016 128.382 41.4325 128.678L37.4544 133.063C36.7805 133.805 35.5479 133.455 35.3693 132.469L34.3086 126.645C34.2363 126.254 33.9784 125.921 33.6143 125.759L28.2138 123.332C27.3001 122.92 27.2526 121.64 28.1346 121.163L33.3452 118.354C33.6957 118.164 33.9309 117.816 33.9739 117.42L34.6139 111.533C34.7225 110.536 35.9256 110.097 36.6516 110.789L40.9349 114.878C41.2221 115.154 41.627 115.27 42.0182 115.188L47.8145 113.978C48.796 113.772 49.5853 114.783 49.1511 115.686L46.5865 121.023C46.4146 121.382 46.4282 121.803 46.6272 122.147L49.5695 127.285C50.067 128.156 49.3524 129.219 48.3573 129.085V129.081Z" fill="#DD8731"/>
<path d="M35.8224 110.706C35.9943 110.706 36.2453 110.752 36.476 110.973L40.7593 115.062C41.033 115.322 41.3926 115.467 41.7702 115.467C41.8698 115.467 41.9715 115.456 42.0688 115.435L47.8651 114.225C47.9329 114.212 48.0008 114.205 48.0686 114.205C48.3943 114.205 48.6928 114.375 48.8715 114.655C49.0501 114.938 49.0682 115.272 48.9212 115.576L46.3566 120.913C46.1486 121.347 46.1667 121.856 46.4064 122.274L49.3486 127.412C49.5205 127.711 49.5205 128.068 49.3486 128.364C49.1745 128.665 48.8692 128.844 48.5277 128.844C48.4825 128.844 48.4373 128.842 48.392 128.835L42.5233 128.046C42.4578 128.037 42.3922 128.032 42.3288 128.032C41.9172 128.032 41.5215 128.206 41.2456 128.511L37.2675 132.897C37.0843 133.1 36.8333 133.211 36.5665 133.211C36.1797 133.211 35.7184 132.964 35.6189 132.426L34.5582 126.6C34.4723 126.126 34.1579 125.725 33.7192 125.529L28.3186 123.102C27.9794 122.95 27.7691 122.636 27.7555 122.265C27.7419 121.894 27.9296 121.566 28.2576 121.39L33.4681 118.581C33.8911 118.353 34.176 117.93 34.228 117.45L34.868 111.564C34.9291 111.009 35.4063 110.709 35.8247 110.709M35.8247 110.455C35.2457 110.455 34.6871 110.872 34.6147 111.536L33.9747 117.423C33.9318 117.819 33.6966 118.167 33.346 118.357L28.1355 121.166C27.2535 121.641 27.2987 122.923 28.2146 123.335L33.6151 125.761C33.9793 125.924 34.2371 126.257 34.3094 126.648L35.3701 132.474C35.4832 133.098 36.0192 133.467 36.5665 133.467C36.8853 133.467 37.2087 133.342 37.4552 133.068L41.4333 128.683C41.664 128.428 41.9896 128.285 42.3288 128.285C42.3831 128.285 42.4374 128.29 42.4894 128.297L48.3581 129.086C48.4146 129.093 48.4712 129.097 48.5277 129.097C49.4301 129.097 50.0384 128.107 49.5703 127.286L46.628 122.148C46.4313 121.802 46.4154 121.381 46.5873 121.024L49.1519 115.686C49.5477 114.863 48.9257 113.952 48.0709 113.952C47.9872 113.952 47.9013 113.961 47.8153 113.979L42.019 115.189C41.9376 115.207 41.8539 115.214 41.7725 115.214C41.4649 115.214 41.1642 115.096 40.938 114.879L36.6547 110.79C36.4127 110.559 36.1164 110.453 35.8269 110.453L35.8247 110.455Z" fill="#DD8731"/>
</g>
<path d="M53.0357 135.003C60.7283 127.31 60.7283 114.838 53.0357 107.146C45.3432 99.4531 32.8711 99.4531 25.1786 107.146C17.486 114.838 17.486 127.31 25.1786 135.003C32.8711 142.695 45.3432 142.695 53.0357 135.003Z" fill="url(#paint11_radial_1279_2224)" style="mix-blend-mode:screen"/>
<defs>
<radialGradient id="paint0_radial_1279_2224" cx="0" cy="0" r="1" gradientUnits="userSpaceOnUse" gradientTransform="translate(60.8705 135.917) rotate(-16.91) scale(11.8503)">
<stop stop-color="#DFA900"/>
<stop offset="0.84" stop-color="#DF8500"/>
</radialGradient>
<radialGradient id="paint1_radial_1279_2224" cx="0" cy="0" r="1" gradientUnits="userSpaceOnUse" gradientTransform="translate(60.619 135.077) rotate(-16.91) scale(11.8503 11.8503)">
<stop stop-color="#FFF400"/>
<stop offset="0.16" stop-color="#FFE800"/>
<stop offset="0.45" stop-color="#FFCA00"/>
<stop offset="0.82" stop-color="#FF9A00"/>
<stop offset="0.84" stop-color="#FF9800"/>
</radialGradient>
<linearGradient id="paint2_linear_1279_2224" x1="65.8391" y1="144.643" x2="62.0475" y2="132.167" gradientUnits="userSpaceOnUse">
<stop stop-color="#FFB722"/>
<stop offset="0.24" stop-color="#FFC633"/>
<stop offset="0.72" stop-color="#FFE250"/>
<stop offset="1" stop-color="#FFED5C"/>
</linearGradient>
<radialGradient id="paint3_radial_1279_2224" cx="0" cy="0" r="1" gradientUnits="userSpaceOnUse" gradientTransform="translate(64.0905 138.481) rotate(-16.91) scale(10.4297)">
<stop stop-color="#DFA900"/>
<stop offset="0.03" stop-color="#DFA800" stop-opacity="0.97"/>
<stop offset="0.39" stop-color="#DFA100" stop-opacity="0.56"/>
<stop offset="0.68" stop-color="#DF9B00" stop-opacity="0.26"/>
<stop offset="0.89" stop-color="#DF9800" stop-opacity="0.07"/>
<stop offset="1" stop-color="#DF9700" stop-opacity="0"/>
</radialGradient>
<radialGradient id="paint4_radial_1279_2224" cx="0" cy="0" r="1" gradientUnits="userSpaceOnUse" gradientTransform="translate(73.004 76.2266) rotate(-16.91) scale(65.5831 65.5831)">
<stop stop-color="#DFA900"/>
<stop offset="0.84" stop-color="#DF8500"/>
</radialGradient>
<radialGradient id="paint5_radial_1279_2224" cx="0" cy="0" r="1" gradientUnits="userSpaceOnUse" gradientTransform="translate(71.5989 71.568) rotate(-16.91) scale(65.5831 65.5831)">
<stop stop-color="#FFF400"/>
<stop offset="0.16" stop-color="#FFE800"/>
<stop offset="0.45" stop-color="#FFCA00"/>
<stop offset="0.82" stop-color="#FF9A00"/>
<stop offset="0.84" stop-color="#FF9800"/>
</radialGradient>
<linearGradient id="paint6_linear_1279_2224" x1="100.489" y1="124.513" x2="79.5047" y2="55.4664" gradientUnits="userSpaceOnUse">
<stop stop-color="#FFB722"/>
<stop offset="0.24" stop-color="#FFC633"/>
<stop offset="0.72" stop-color="#FFE250"/>
<stop offset="1" stop-color="#FFED5C"/>
</linearGradient>
<radialGradient id="paint7_radial_1279_2224" cx="0" cy="0" r="1" gradientUnits="userSpaceOnUse" gradientTransform="translate(90.8444 90.4121) rotate(-16.91) scale(57.7213)">
<stop stop-color="#DFA900"/>
<stop offset="0.03" stop-color="#DFA800" stop-opacity="0.97"/>
<stop offset="0.39" stop-color="#DFA100" stop-opacity="0.56"/>
<stop offset="0.68" stop-color="#DF9B00" stop-opacity="0.26"/>
<stop offset="0.89" stop-color="#DF9800" stop-opacity="0.07"/>
<stop offset="1" stop-color="#DF9700" stop-opacity="0"/>
</radialGradient>
<radialGradient id="paint8_radial_1279_2224" cx="0" cy="0" r="1" gradientUnits="userSpaceOnUse" gradientTransform="translate(33.8504 116.813) rotate(-16.91) scale(20.2995 20.2995)">
<stop stop-color="#DFA900"/>
<stop offset="0.84" stop-color="#DF8500"/>
</radialGradient>
<radialGradient id="paint9_radial_1279_2224" cx="0" cy="0" r="1" gradientUnits="userSpaceOnUse" gradientTransform="translate(33.4116 115.369) rotate(-16.91) scale(20.2995 20.2995)">
<stop stop-color="#FFF400"/>
<stop offset="0.16" stop-color="#FFE800"/>
<stop offset="0.45" stop-color="#FFCA00"/>
<stop offset="0.82" stop-color="#FF9A00"/>
<stop offset="0.84" stop-color="#FF9800"/>
</radialGradient>
<linearGradient id="paint10_linear_1279_2224" x1="42.3537" y1="131.757" x2="35.8586" y2="110.385" gradientUnits="userSpaceOnUse">
<stop stop-color="#FFB722"/>
<stop offset="0.24" stop-color="#FFC633"/>
<stop offset="0.72" stop-color="#FFE250"/>
<stop offset="1" stop-color="#FFED5C"/>
</linearGradient>
<radialGradient id="paint11_radial_1279_2224" cx="0" cy="0" r="1" gradientUnits="userSpaceOnUse" gradientTransform="translate(39.3685 121.202) rotate(-16.91) scale(17.8661)">
<stop stop-color="#DFA900"/>
<stop offset="0.03" stop-color="#DFA800" stop-opacity="0.97"/>
<stop offset="0.39" stop-color="#DFA100" stop-opacity="0.56"/>
<stop offset="0.68" stop-color="#DF9B00" stop-opacity="0.26"/>
<stop offset="0.89" stop-color="#DF9800" stop-opacity="0.07"/>
<stop offset="1" stop-color="#DF9700" stop-opacity="0"/>
</radialGradient>
</defs>
</svg>
