<svg width="18" height="18" viewBox="0 0 18 18" fill="none" xmlns="http://www.w3.org/2000/svg">
<rect width="18" height="18" rx="9" fill="url(#paint0_linear_1279_2289)"/>
<path d="M3.53906 14.2369L4.31076 11.4346C3.83366 10.6121 3.58338 9.68058 3.58599 8.72832C3.58599 5.74441 6.02623 3.31836 9.02178 3.31836C10.4765 3.31836 11.8427 3.88141 12.8672 4.90373C13.8944 5.92604 14.4602 7.28567 14.4576 8.73092C14.4576 11.7148 12.0173 14.1409 9.01918 14.1409H9.01657C8.10669 14.1409 7.21246 13.9125 6.4173 13.4818L3.53906 14.2369ZM6.55547 12.5036L6.71972 12.6022C7.41321 13.0122 8.20837 13.2275 9.01918 13.2301H9.02178C11.5116 13.2301 13.5399 11.2141 13.5399 8.73351C13.5399 7.53216 13.0706 6.40347 12.2181 5.5524C11.3656 4.70134 10.2289 4.23429 9.02178 4.23429C6.53201 4.2317 4.50369 6.24778 4.50369 8.72832C4.50369 9.57679 4.74093 10.4045 5.19457 11.1206L5.30146 11.2919L4.84522 12.9499L6.55547 12.5036Z" fill="white"/>
<path d="M3.73047 14.0475L4.4761 11.3412C4.01464 10.5498 3.77218 9.64948 3.77218 8.73096C3.77479 5.85083 6.129 3.50781 9.02287 3.50781C10.4281 3.50781 11.7447 4.0527 12.7354 5.03869C13.7261 6.02468 14.271 7.3376 14.271 8.73355C14.271 11.6137 11.9141 13.9567 9.02287 13.9567H9.02026C8.14167 13.9567 7.27873 13.7361 6.51224 13.321L3.73047 14.0475Z" fill="url(#paint1_linear_1279_2289)"/>
<path d="M3.53906 14.2369L4.31076 11.4346C3.83366 10.6121 3.58338 9.68058 3.58599 8.72832C3.58599 5.74441 6.02623 3.31836 9.02178 3.31836C10.4765 3.31836 11.8427 3.88141 12.8672 4.90373C13.8944 5.92604 14.4602 7.28567 14.4576 8.73092C14.4576 11.7148 12.0173 14.1409 9.01918 14.1409H9.01657C8.10669 14.1409 7.21246 13.9125 6.4173 13.4818L3.53906 14.2369ZM6.55547 12.5036L6.71972 12.6022C7.41321 13.0122 8.20837 13.2275 9.01918 13.2301H9.02178C11.5116 13.2301 13.5399 11.2141 13.5399 8.73351C13.5399 7.53216 13.0706 6.40347 12.2181 5.5524C11.3656 4.70134 10.2289 4.23429 9.02178 4.23429C6.53201 4.2317 4.50369 6.24778 4.50369 8.72832C4.50369 9.57679 4.74093 10.4045 5.19457 11.1206L5.30146 11.2919L4.84522 12.9499L6.55547 12.5036Z" fill="url(#paint2_linear_1279_2289)"/>
<path fill-rule="evenodd" clip-rule="evenodd" d="M7.66434 6.46463C7.56266 6.23889 7.45577 6.23371 7.35931 6.23111C7.28109 6.22852 7.18984 6.22852 7.0986 6.22852C7.00735 6.22852 6.86135 6.26225 6.73621 6.39717C6.61107 6.5321 6.26172 6.85903 6.26172 7.52587C6.26172 8.19011 6.74925 8.8336 6.81703 8.92442C6.88481 9.01523 7.75819 10.4242 9.13734 10.9664C10.2845 11.4179 10.5191 11.3271 10.7668 11.3038C11.0145 11.2804 11.5698 10.9768 11.6845 10.6603C11.7966 10.3437 11.7966 10.0739 11.7627 10.0168C11.7288 9.9597 11.6375 9.92597 11.502 9.85851C11.3664 9.79105 10.699 9.46412 10.5739 9.41741C10.4487 9.3733 10.3575 9.34995 10.2688 9.48487C10.1776 9.6198 9.91687 9.92338 9.83865 10.0142C9.76044 10.105 9.67962 10.1154 9.54405 10.0479C9.40848 9.98046 8.97049 9.83775 8.45168 9.3759C8.04758 9.01783 7.77383 8.57413 7.69562 8.43921C7.61741 8.30428 7.6878 8.23163 7.75558 8.16417C7.81555 8.10449 7.89115 8.00589 7.95894 7.92805C8.02672 7.85021 8.05019 7.79312 8.09451 7.70231C8.13883 7.61149 8.11797 7.53365 8.08408 7.46619C8.05019 7.40132 7.78426 6.73189 7.66434 6.46463Z" fill="white"/>
<defs>
<linearGradient id="paint0_linear_1279_2289" x1="8.99953" y1="17.9991" x2="8.99953" y2="-0.000629773" gradientUnits="userSpaceOnUse">
<stop stop-color="#20B038"/>
<stop offset="1" stop-color="#60D66A"/>
</linearGradient>
<linearGradient id="paint1_linear_1279_2289" x1="9.00044" y1="14.047" x2="9.00044" y2="3.50744" gradientUnits="userSpaceOnUse">
<stop stop-color="#20B038"/>
<stop offset="1" stop-color="#60D66A"/>
</linearGradient>
<linearGradient id="paint2_linear_1279_2289" x1="8.99939" y1="14.2359" x2="8.99939" y2="3.31836" gradientUnits="userSpaceOnUse">
<stop stop-color="#F9F9F9"/>
<stop offset="1" stop-color="white"/>
</linearGradient>
</defs>
</svg>
