<svg width="22" height="20" viewBox="0 0 22 20" fill="none" xmlns="http://www.w3.org/2000/svg">
<path d="M5.34756 5.94208L6.9793 6.12088L6.26707 2.50061C6.20303 2.17444 6.0552 1.87243 5.83931 1.62672C5.62342 1.38101 5.34755 1.20078 5.04105 1.10521L1.76517 0.0803301C1.11495 -0.122435 0.45942 0.382634 0.45942 1.09047C0.45942 1.75591 1.09546 2.22042 1.69607 1.99369L2.1514 1.88678L3.98689 2.45268C4.16536 2.50796 4.32681 2.6109 4.45519 2.75125C4.58356 2.8916 4.67437 3.06448 4.7186 3.25268L5.34756 5.94208ZM7.03953 13.6269L8.1752 18.6499L9.55536 18.143L8.70494 13.6269H7.03953Z" fill="#8E8E93"/>
<path d="M7.84138 17.1719H18.9889V18.7074H8.09296L7.84138 17.1719Z" fill="#8E8E93"/>
<path d="M21.9789 7.23434L20.666 13.8924C20.565 14.4085 20.1292 14.7772 19.6243 14.7772H7.48454C7.40438 14.7773 7.32657 14.749 7.26382 14.6971C7.20107 14.6452 7.15709 14.5727 7.13906 14.4915L5.00946 4.90439C4.95454 4.65923 5.14589 4.4325 5.38684 4.45462L21.0328 5.91084C21.1819 5.92466 21.3265 5.97111 21.4571 6.04715C21.5878 6.12319 21.7015 6.2271 21.7908 6.35207C21.8801 6.47704 21.9431 6.62025 21.9755 6.77229C22.0079 6.92434 22.009 7.0818 21.9789 7.23434ZM19.5073 7.43527L18.7526 7.36522C18.679 7.3583 18.6049 7.36742 18.5349 7.39198C18.4649 7.41654 18.4006 7.456 18.3461 7.50786C18.2916 7.55972 18.248 7.62283 18.2183 7.69317C18.1885 7.7635 18.1732 7.83952 18.1732 7.91637V8.80485C18.1732 9.11084 18.4106 9.35785 18.7047 9.35785H19.4985C19.7501 9.35785 19.968 9.17351 20.0194 8.91545L20.1363 8.31821C20.157 8.21657 20.1567 8.11151 20.1354 8.00999C20.1142 7.90847 20.0724 7.81281 20.013 7.72934C19.9535 7.64586 19.8777 7.57648 19.7905 7.52579C19.7033 7.47509 19.6068 7.44423 19.5073 7.43527ZM12.7376 10.8307H11.7313C11.4372 10.8307 11.1998 11.0777 11.1998 11.3837V12.5652C11.1998 12.8712 11.4372 13.1182 11.7313 13.1182H12.7376C13.0317 13.1182 13.2692 12.8712 13.2692 12.5652V11.3837C13.2692 11.0777 13.0317 10.8307 12.7376 10.8307ZM11.7313 9.356H12.7376C13.0317 9.356 13.2692 9.109 13.2692 8.80301V7.35969C13.2692 7.07397 13.0583 6.83434 12.7855 6.80854L11.7792 6.71453C11.7056 6.70761 11.6314 6.71672 11.5615 6.74128C11.4915 6.76584 11.4272 6.80531 11.3726 6.85717C11.3181 6.90903 11.2746 6.97214 11.2449 7.04248C11.2151 7.11281 11.1997 7.18883 11.1998 7.26568V8.80301C11.1998 9.109 11.4372 9.356 11.7313 9.356ZM14.6865 11.3837V12.5652C14.6865 12.8712 14.9239 13.1182 15.218 13.1182H16.2244C16.5185 13.1182 16.7559 12.8712 16.7559 12.5652V11.3837C16.7559 11.0777 16.5185 10.8307 16.2244 10.8307H15.218C14.9239 10.8307 14.6865 11.0777 14.6865 11.3837ZM15.218 9.356H16.2244C16.5185 9.356 16.7559 9.109 16.7559 8.80301V7.68411C16.7559 7.3984 16.545 7.15877 16.2722 7.13296L15.2659 7.03895C15.1923 7.03204 15.1182 7.04115 15.0482 7.06571C14.9782 7.09027 14.9139 7.12974 14.8594 7.18159C14.8049 7.23345 14.7613 7.29656 14.7316 7.3669C14.7018 7.43724 14.6865 7.51325 14.6865 7.5901V8.80301C14.6865 9.109 14.9239 9.356 15.218 9.356ZM7.11425 7.00762L7.54123 8.92651C7.56828 9.04815 7.63416 9.15667 7.72812 9.23434C7.82208 9.31201 7.93857 9.35425 8.05857 9.35416H9.25093C9.54503 9.35416 9.78244 9.10716 9.78244 8.80116V7.03527C9.78244 6.74955 9.57161 6.50992 9.29876 6.48411L7.6812 6.33296C7.31977 6.29978 7.03275 6.64264 7.11425 7.00762ZM9.03478 13.1182H9.42633C9.62121 13.1182 9.78067 12.9523 9.78067 12.7496V11.3837C9.78067 11.0777 9.54326 10.8307 9.24916 10.8307H8.63083C8.28889 10.8307 8.03554 11.1625 8.11349 11.509L8.34381 12.5486C8.38052 12.7106 8.46871 12.855 8.59412 12.9584C8.71952 13.0618 8.87479 13.1181 9.03478 13.1182ZM19.5339 11.3781C19.5906 11.0943 19.3815 10.8288 19.1034 10.8288H18.7047C18.4106 10.8288 18.1732 11.0758 18.1732 11.3818V12.6592C18.1732 12.7805 18.2195 12.8967 18.3019 12.9825C18.3843 13.0682 18.4961 13.1164 18.6126 13.1164C18.9492 13.1164 19.2398 12.8694 19.3071 12.5265L19.5339 11.3781Z" fill="#8E8E93"/>
<path d="M8.94242 20.0006C7.86608 20.0006 6.99354 19.0928 6.99354 17.973C6.99354 16.8531 7.86608 15.9453 8.94242 15.9453C10.0188 15.9453 10.8913 16.8531 10.8913 17.973C10.8913 19.0928 10.0188 20.0006 8.94242 20.0006Z" fill="#2F2F2F"/>
<path d="M8.93944 18.9186C8.43748 18.9186 8.03056 18.4952 8.03056 17.973C8.03056 17.4507 8.43748 17.0273 8.93944 17.0273C9.4414 17.0273 9.84832 17.4507 9.84832 17.973C9.84832 18.4952 9.4414 18.9186 8.93944 18.9186Z" fill="#8E8E93"/>
<path d="M18.3018 20.0006C17.2255 20.0006 16.3529 19.0928 16.3529 17.973C16.3529 16.8531 17.2255 15.9453 18.3018 15.9453C19.3781 15.9453 20.2507 16.8531 20.2507 17.973C20.2507 19.0928 19.3781 20.0006 18.3018 20.0006Z" fill="#2F2F2F"/>
<path d="M18.3066 18.9186C17.8047 18.9186 17.3977 18.4952 17.3977 17.973C17.3977 17.4507 17.8047 17.0273 18.3066 17.0273C18.8086 17.0273 19.2155 17.4507 19.2155 17.973C19.2155 18.4952 18.8086 18.9186 18.3066 18.9186Z" fill="#8E8E93"/>
<path d="M1.31283 2.7318C0.587777 2.7318 7.15256e-07 2.12026 7.15256e-07 1.3659C7.15256e-07 0.611534 0.587777 0 1.31283 0C2.03789 0 2.62567 0.611534 2.62567 1.3659C2.62567 2.12026 2.03789 2.7318 1.31283 2.7318Z" fill="#8E8E93"/>
</svg>
