<svg width="20" height="22" viewBox="0 0 20 22" fill="none" xmlns="http://www.w3.org/2000/svg">
<path d="M15.5914 15.3203H9.99049V17.6782H6.53035C6.2391 17.6782 5.98022 17.8102 5.89143 18.0711L5.05004 20.9642C4.88077 21.479 5.29317 22.0009 5.87484 22.0009C6.11796 22.0009 6.35195 21.9113 6.51376 21.747L7.51612 20.741C7.67793 20.576 7.92022 20.429 8.16334 20.429H15.5914C16.3067 20.429 16.9926 20.1599 17.4983 19.6808C18.0041 19.2018 18.2882 18.5521 18.2882 17.8746C18.2882 17.1972 18.0041 16.5475 17.4983 16.0685C16.9926 15.5894 16.3067 15.3203 15.5914 15.3203Z" fill="#8E8E93"/>
<path d="M9.99692 15.3203H4.39597C3.6994 15.3213 3.03023 15.5775 2.52864 16.0353C2.02705 16.4931 1.73194 17.117 1.70513 17.7763C1.67831 18.4356 1.92188 19.0792 2.3848 19.5722C2.84772 20.0652 3.4941 20.3694 4.18853 20.4211V20.429H11.8241C12.0672 20.429 12.3095 20.5767 12.4713 20.741L13.4737 21.747C13.6355 21.9121 13.8695 22.0009 14.1126 22.0009C14.6942 22.0009 15.1066 21.479 14.9365 20.9642L14.096 18.0711C14.013 17.8267 13.7807 17.6955 13.5118 17.6797L13.4571 17.6782H9.99692V15.3203Z" fill="#8E8E93"/>
<path d="M5.01849 11.786C5.01849 10.5353 5.54302 9.33587 6.47669 8.45151C7.41036 7.56714 8.67669 7.07031 9.99711 7.07031C11.3175 7.07031 12.5838 7.56714 13.5175 8.45151C14.4512 9.33587 14.9757 10.5353 14.9757 11.786V12.2953C14.9757 12.572 15.1068 12.7449 15.1832 12.9649C15.4354 13.7084 16.3614 14.4189 17.202 15.0823C17.4949 15.3134 17.777 15.5358 18.0168 15.748L18.7719 15.6301C18.9794 15.5987 19.1702 15.7244 19.2034 15.9209C19.212 15.9667 19.2109 16.0137 19.2001 16.0592C19.1893 16.1046 19.1689 16.1475 19.1403 16.1854C19.1117 16.2232 19.0754 16.2553 19.0335 16.2797C18.9916 16.304 18.945 16.3202 18.8964 16.3272L18.7553 16.3508C18.8217 16.4294 18.8715 16.5159 18.913 16.6094C19.1121 16.7194 19.3445 16.7666 19.5768 16.743C19.751 16.7273 19.917 16.8287 19.9502 16.9929C19.9632 17.0632 19.9505 17.1356 19.9143 17.1981C19.8781 17.2607 19.8206 17.3097 19.751 17.3372C19.834 17.3843 19.9004 17.4708 19.9087 17.573C19.9142 17.6137 19.9111 17.6552 19.8994 17.6947C19.8876 17.7343 19.8676 17.7713 19.8405 17.8034C19.8135 17.8355 19.7798 17.8621 19.7416 17.8817C19.7034 17.9013 19.6615 17.9133 19.6183 17.9172H19.61V17.9329C19.6155 17.9737 19.6123 18.0151 19.6006 18.0547C19.5889 18.0943 19.5689 18.1313 19.5418 18.1634C19.5147 18.1955 19.4811 18.2221 19.4429 18.2417C19.4047 18.2612 19.3628 18.2733 19.3196 18.2772C19.1287 18.3008 18.9379 18.2929 18.7553 18.2536C18.7306 18.3207 18.6828 18.378 18.6196 18.4163C18.5564 18.4547 18.4815 18.4718 18.4068 18.465C18.0583 18.4336 17.7347 18.3157 17.4609 18.1129C14.5542 15.9846 14.1966 15.722 13.873 15.4265L13.7311 15.2937C13.3162 14.9023 12.9013 14.1195 12.9013 13.7281H12.0715V12.572H7.92268V13.7281H7.09291C7.09291 14.1195 6.67803 14.9023 6.26314 15.2937L6.12208 15.4265C5.79847 15.722 5.44001 15.9846 2.53333 18.1129C2.2595 18.3165 1.93589 18.4336 1.58739 18.465C1.42973 18.4807 1.28867 18.3864 1.23888 18.2528C1.05634 18.2921 0.865488 18.3 0.674641 18.2764C0.631509 18.2725 0.58964 18.2604 0.551517 18.2409C0.513395 18.2214 0.479794 18.1949 0.452709 18.1629C0.425624 18.1308 0.405606 18.094 0.393841 18.0545C0.382077 18.015 0.378805 17.9736 0.384222 17.9329V17.9172H0.375924C0.332633 17.9133 0.29061 17.9012 0.252366 17.8816C0.214121 17.862 0.180439 17.8353 0.153331 17.8031C0.126224 17.7709 0.106246 17.7339 0.0945929 17.6942C0.0829393 17.6545 0.0798483 17.613 0.0855045 17.5722C0.090332 17.524 0.107135 17.4776 0.134537 17.4367C0.161939 17.3959 0.199162 17.3618 0.243161 17.3372C0.173658 17.3097 0.116085 17.2607 0.0798955 17.1981C0.0437065 17.1356 0.0310542 17.0632 0.0440162 16.9929C0.077207 16.8279 0.243161 16.7265 0.417412 16.7422C0.649748 16.7658 0.882084 16.7186 1.08123 16.6094C1.12272 16.5151 1.1725 16.4286 1.23888 16.3508L1.09782 16.3272C1.04919 16.3201 1.00256 16.3038 0.960657 16.2794C0.918757 16.2549 0.882439 16.2228 0.853836 16.1849C0.825233 16.147 0.804923 16.104 0.7941 16.0585C0.783276 16.0131 0.782157 15.966 0.790809 15.9201C0.798626 15.8741 0.816061 15.83 0.842092 15.7904C0.868123 15.7508 0.902227 15.7166 0.942408 15.6896C0.982589 15.6627 1.02804 15.6436 1.0761 15.6336C1.12416 15.6235 1.17386 15.6226 1.22229 15.6309L1.97738 15.7488C2.21801 15.5366 2.50013 15.3134 2.79221 15.0823C3.63277 14.4197 4.55879 13.7084 4.81104 12.9649C4.88738 12.7449 5.01849 12.572 5.01849 12.2953V11.786Z" fill="#8E8E93"/>
<path d="M13.3139 15.3292H6.67578V8.27765C6.83593 8.12282 7.12054 7.90826 7.50555 7.70312H12.4759C12.7768 7.86765 13.0562 8.0589 13.3139 8.27687V15.3292Z" fill="#8E8E93"/>
<path d="M9.86714 10.2141H10.1111C11.4188 10.2141 12.4826 9.24739 12.4826 8.06061V7.69593C11.7224 7.28692 10.8634 7.07139 9.98911 7.07031C9.10873 7.07031 8.26319 7.29195 7.50395 7.68807V8.06847C7.49566 9.25525 8.55859 10.2141 9.86714 10.2141Z" fill="#8E8E93"/>
<path d="M2.04273 16.461C2.05379 16.4542 2.06713 16.4517 2.08007 16.4539C2.09302 16.4561 2.10462 16.4628 2.11258 16.4727C2.12053 16.4826 2.12425 16.495 2.12299 16.5074C2.12174 16.5198 2.11559 16.5313 2.10579 16.5396L1.31253 17.1227C1.06885 17.3024 0.760462 17.3842 0.45372 17.3507H0.451231V17.3491C0.390983 17.3451 0.330735 17.3568 0.276979 17.3829C0.240637 17.403 0.20987 17.4311 0.187219 17.4647C0.164568 17.4983 0.150681 17.5365 0.146706 17.5762V17.5786C0.137762 17.6407 0.153654 17.7038 0.191264 17.7554C0.228873 17.807 0.285487 17.8435 0.349999 17.8576C0.377718 17.7764 0.435478 17.7075 0.512634 17.6635C0.588136 17.6203 0.676204 17.601 0.764054 17.6085C1.0495 17.6375 1.32664 17.5637 1.54819 17.401L2.5688 16.6496C2.57959 16.6415 2.59334 16.6377 2.60703 16.6392C2.62073 16.6407 2.63324 16.6472 2.64182 16.6575C2.65041 16.6677 2.65435 16.6807 2.6528 16.6937C2.65124 16.7066 2.64431 16.7185 2.63353 16.7266L2.62523 16.7345L1.60461 17.4866C1.36066 17.665 1.05696 17.746 0.74497 17.7138C0.682808 17.7055 0.618702 17.7177 0.56491 17.7484C0.533028 17.767 0.505817 17.7919 0.485179 17.8215C0.464541 17.8511 0.450973 17.8846 0.445423 17.9197L0.438785 17.9621H0.434636C0.426338 18.0957 0.534208 18.216 0.680248 18.2278H0.682737C0.849797 18.2482 1.01382 18.2443 1.17479 18.216L1.19056 18.2671V18.2694L1.19802 18.2671C1.19173 18.2499 1.18701 18.2323 1.18392 18.2144L1.17479 18.216L1.17147 18.1861V18.1885H1.17977V18.1838H1.17147V18.1861C1.16249 18.0907 1.19389 17.9957 1.25877 17.9222C1.32365 17.8486 1.41671 17.8025 1.51749 17.7939C1.72466 17.7722 1.92184 17.6981 2.08837 17.5794L2.10911 17.5707L3.11645 16.828C3.12161 16.8228 3.12789 16.8188 3.13486 16.8161C3.14183 16.8134 3.14932 16.8122 3.15683 16.8126C3.16433 16.8129 3.17168 16.8147 3.17836 16.818C3.18504 16.8212 3.1909 16.8258 3.19554 16.8314C3.20019 16.837 3.2035 16.8435 3.20526 16.8504C3.20702 16.8573 3.20719 16.8645 3.20574 16.8715C3.2043 16.8785 3.20128 16.8851 3.1969 16.8909C3.19252 16.8967 3.18687 16.9015 3.18034 16.905L2.15973 17.6572C1.97718 17.7869 1.76974 17.8678 1.53657 17.8922H1.53491C1.46139 17.8989 1.39368 17.933 1.34657 17.9869C1.29946 18.0408 1.27679 18.1102 1.28349 18.1798C1.29225 18.2494 1.32951 18.3129 1.38724 18.3568C1.44498 18.4006 1.51857 18.4211 1.59216 18.414C1.65523 18.4088 1.71746 18.4002 1.77886 18.3881C1.79133 18.3875 1.80362 18.3912 1.81348 18.3984C1.82335 18.4057 1.83015 18.416 1.83266 18.4276C1.83517 18.4392 1.83321 18.4513 1.82715 18.4616C1.82109 18.4719 1.81132 18.4799 1.79961 18.484C1.73444 18.4972 1.66849 18.5066 1.60212 18.5123C1.52349 18.5194 1.44441 18.5038 1.37537 18.4675C1.30632 18.4311 1.25055 18.3758 1.21545 18.3087C1.03871 18.3425 0.854499 18.348 0.67029 18.326C0.574031 18.3176 0.484965 18.2742 0.421826 18.2048C0.358686 18.1355 0.326395 18.0457 0.331744 17.9543C0.241202 17.9354 0.161423 17.885 0.108128 17.8131C0.0548336 17.7413 0.0318884 17.6531 0.043814 17.566C0.0521085 17.4816 0.0928593 17.403 0.158322 17.3452C0.103632 17.3087 0.0603004 17.2589 0.0328579 17.2011C0.00541536 17.1433 -0.00512956 17.0796 0.00232577 17.0166C0.00742049 16.9693 0.0225359 16.9235 0.0467681 16.8818C0.0710002 16.8402 0.103851 16.8036 0.143357 16.7742C0.182863 16.7449 0.228211 16.7234 0.276691 16.711C0.32517 16.6986 0.375785 16.6957 0.425508 16.7023C0.70519 16.7325 0.986296 16.6581 1.20881 16.4948C1.21978 16.4889 1.23264 16.4869 1.24501 16.4893C1.25738 16.4916 1.26843 16.4982 1.27612 16.5077C1.2838 16.5171 1.28761 16.5289 1.28683 16.5409C1.28605 16.5528 1.28074 16.5641 1.27187 16.5726C1.02795 16.7516 0.719581 16.8329 0.413062 16.7989C0.376975 16.794 0.339375 16.796 0.304143 16.8049C0.268912 16.8138 0.235951 16.8294 0.207253 16.8507C0.178555 16.872 0.154717 16.8986 0.137179 16.9289C0.119641 16.9591 0.108768 16.9925 0.105217 17.0268C0.0994204 17.0788 0.110342 17.1313 0.13655 17.1773C0.162759 17.2233 0.203031 17.2607 0.252087 17.2846C0.318427 17.2538 0.392931 17.2423 0.466167 17.2516C0.53808 17.259 0.609994 17.26 0.681907 17.2548C0.890157 17.238 1.08878 17.1643 1.25362 17.0426L2.04273 16.461Z" fill="#8E8E93"/>
<path fill-rule="evenodd" clip-rule="evenodd" d="M17.957 16.4634C17.9515 16.4595 17.9453 16.4565 17.9386 16.4548C17.932 16.4531 17.9251 16.4527 17.9183 16.4535C17.9114 16.4544 17.9049 16.4565 17.8989 16.4597C17.8929 16.463 17.8877 16.4673 17.8835 16.4725C17.8793 16.4776 17.8762 16.4835 17.8745 16.4898C17.8727 16.4961 17.8722 16.5027 17.8731 16.5091C17.874 16.5156 17.8762 16.5218 17.8796 16.5274C17.883 16.5331 17.8876 16.538 17.8931 16.542L18.6863 17.1252C18.93 17.3048 19.2384 17.3867 19.5451 17.3531H19.5468L19.5485 17.3523C19.6087 17.3484 19.6689 17.3601 19.7227 17.3861C19.759 17.4063 19.7898 17.4343 19.8125 17.4679C19.8351 17.5015 19.849 17.5398 19.853 17.5795V17.5818C19.862 17.6439 19.8462 17.7068 19.8087 17.7584C19.7713 17.81 19.7149 17.8466 19.6505 17.8608C19.6226 17.7795 19.5645 17.7106 19.487 17.6667C19.4118 17.6237 19.324 17.6044 19.2365 17.6117C18.9562 17.6424 18.6744 17.5679 18.4515 17.4042L17.4309 16.6528C17.4201 16.6447 17.4063 16.641 17.3927 16.6424C17.379 16.6439 17.3664 16.6505 17.3579 16.6607C17.3493 16.6709 17.3453 16.6839 17.3469 16.6969C17.3484 16.7099 17.3554 16.7217 17.3662 16.7299L17.3753 16.7377L18.3959 17.4899C18.639 17.6683 18.9436 17.7492 19.2547 17.717H19.2564C19.3183 17.7089 19.3812 17.7211 19.4348 17.7516C19.4668 17.7701 19.4942 17.795 19.515 17.8246C19.5358 17.8542 19.5494 17.8878 19.5551 17.9229L19.5617 17.9654H19.565C19.5733 18.099 19.4655 18.2192 19.3194 18.231H19.3169C19.1499 18.2515 18.9859 18.2475 18.8249 18.2192L18.8282 18.1894C18.8372 18.094 18.8059 17.9992 18.7412 17.9257C18.6765 17.8522 18.5837 17.806 18.483 17.7972C18.2753 17.7757 18.0775 17.7016 17.9105 17.5826L17.8914 17.574L16.8832 16.8312C16.8781 16.8261 16.8718 16.822 16.8648 16.8194C16.8579 16.8167 16.8504 16.8155 16.8429 16.8158C16.8354 16.8161 16.828 16.818 16.8213 16.8212C16.8146 16.8245 16.8088 16.8291 16.8041 16.8347C16.7995 16.8403 16.7962 16.8467 16.7944 16.8537C16.7927 16.8606 16.7925 16.8678 16.7939 16.8748C16.7954 16.8818 16.7984 16.8884 16.8028 16.8941C16.8072 16.8999 16.8128 16.9047 16.8193 16.9083L17.84 17.6604C18.0225 17.7901 18.2299 17.8711 18.4639 17.8954C18.5005 17.8986 18.536 17.9085 18.5684 17.9247C18.6009 17.9409 18.6296 17.963 18.6531 17.9897C18.6765 18.0164 18.6941 18.0472 18.705 18.0804C18.7158 18.1136 18.7196 18.1485 18.7162 18.1831C18.7074 18.2527 18.6702 18.3162 18.6124 18.36C18.5547 18.4038 18.4811 18.4244 18.4075 18.4173C18.3448 18.412 18.2825 18.4034 18.2208 18.3914C18.2084 18.3908 18.1961 18.3944 18.1862 18.4017C18.1763 18.4089 18.1695 18.4193 18.167 18.4309C18.1645 18.4425 18.1665 18.4545 18.1725 18.4649C18.1786 18.4752 18.1884 18.4831 18.2001 18.4872C18.2654 18.4998 18.3315 18.5093 18.3984 18.5155C18.4769 18.5225 18.5558 18.5068 18.6247 18.4705C18.6935 18.4341 18.7492 18.3789 18.7842 18.312C18.9618 18.3458 19.146 18.3513 19.3294 18.3293C19.4258 18.3211 19.5151 18.2777 19.5784 18.2083C19.6417 18.139 19.6741 18.0491 19.6688 17.9575C19.7593 17.9386 19.8391 17.8882 19.8924 17.8164C19.9457 17.7445 19.9686 17.6563 19.9567 17.5693C19.9482 17.4847 19.9071 17.4061 19.8414 17.3484C19.8961 17.3119 19.9394 17.2622 19.9668 17.2044C19.9943 17.1466 20.0048 17.0829 19.9974 17.0199C19.9923 16.9726 19.9771 16.9267 19.9529 16.8851C19.9287 16.8434 19.8958 16.8068 19.8563 16.7775C19.8168 16.7481 19.7715 16.7266 19.723 16.7143C19.6745 16.7019 19.6239 16.6989 19.5742 16.7055C19.2945 16.7358 19.0134 16.6613 18.7909 16.498C18.7856 16.493 18.7793 16.4891 18.7723 16.4865C18.7653 16.484 18.7579 16.4829 18.7504 16.4834C18.743 16.4838 18.7357 16.4857 18.7291 16.4891C18.7225 16.4924 18.7167 16.497 18.7122 16.5026C18.7076 16.5082 18.7044 16.5147 18.7027 16.5216C18.701 16.5285 18.7009 16.5357 18.7024 16.5426C18.7039 16.5495 18.7069 16.5561 18.7113 16.5618C18.7157 16.5675 18.7213 16.5723 18.7278 16.5758C18.9709 16.7542 19.2755 16.8352 19.5866 16.8022H19.5883C19.6243 16.7973 19.661 16.7995 19.6961 16.8084C19.7313 16.8174 19.7641 16.833 19.7927 16.8542C19.8213 16.8755 19.8451 16.9021 19.8626 16.9323C19.8801 16.9625 19.8909 16.9958 19.8945 17.0301C19.9003 17.082 19.8895 17.1344 19.8635 17.1804C19.8374 17.2263 19.7973 17.2638 19.7484 17.2879C19.6828 17.2575 19.6093 17.246 19.5368 17.2549H19.5335C19.4611 17.2622 19.3894 17.2633 19.3186 17.258C19.1118 17.2413 18.9144 17.1685 18.7502 17.0482L18.7461 17.0458L17.957 16.4634ZM18.8282 18.1894V18.1917H18.8199V18.187H18.8282V18.1894ZM18.8249 18.2192C18.8205 18.2391 18.8155 18.2562 18.81 18.2703L18.8091 18.2727L18.8025 18.2703C18.8085 18.2532 18.8129 18.2355 18.8158 18.2177L18.8249 18.2192Z" fill="#8E8E93"/>
<path d="M13.3139 15.3203H6.67578L8.02831 17.6782H11.9149L13.3139 15.3203Z" fill="#8E8E93"/>
<path d="M12.6619 1.14662L12.4445 1.04209C12.2931 0.968778 12.1546 0.873882 12.0337 0.760723L11.6155 0.359888C11.462 0.213912 11.2683 0.111692 11.0565 0.064866C10.8447 0.0180398 10.6232 0.0284887 10.4173 0.0950232C10.1461 0.18347 9.85136 0.18347 9.5801 0.0950232C9.40027 0.0105016 9.19705 -0.0186493 8.99886 0.0116503C8.80068 0.0419499 8.61746 0.130184 8.47484 0.264002L7.95541 0.760723C7.83477 0.873816 7.69652 0.96871 7.5455 1.04209L7.32727 1.14584C7.13407 1.23788 6.97794 1.38723 6.88266 1.57112C6.78739 1.75501 6.7582 1.96337 6.79954 2.16443L7.08498 3.66402C7.09554 3.73696 7.13346 3.80387 7.19182 3.8525C7.25017 3.90113 7.32505 3.92825 7.40278 3.92889C7.40278 3.92889 7.36959 3.50447 7.35299 3.23096C7.34808 3.16087 7.35976 3.09062 7.38718 3.02535C7.4146 2.96008 7.45706 2.90144 7.51148 2.85371L7.60358 2.77433C7.66696 2.71926 7.7176 2.65234 7.7523 2.57781C7.78701 2.50327 7.80502 2.42273 7.80522 2.34127V1.92393C7.80522 1.80368 7.88819 1.69915 8.01432 1.67557C8.34125 1.5954 9.03577 1.46651 9.99913 1.46651C10.9625 1.46651 11.657 1.60326 11.9839 1.67557C12.1009 1.70701 12.193 1.81154 12.193 1.92393V2.34048C12.193 2.50946 12.2677 2.66194 12.3938 2.77433L12.4942 2.86235C12.5477 2.90915 12.5897 2.96648 12.6172 3.0303C12.6447 3.09413 12.6571 3.16289 12.6536 3.23175C12.637 3.50369 12.6038 3.92889 12.6038 3.92889C12.6796 3.92491 12.7516 3.89646 12.8079 3.84826C12.8643 3.80006 12.9014 3.73504 12.9133 3.66402L13.1979 2.16443C13.2358 1.96264 13.2041 1.75466 13.1076 1.57123C13.0111 1.3878 12.8548 1.23944 12.6619 1.14662Z" fill="#8E8E93"/>
<path fill-rule="evenodd" clip-rule="evenodd" d="M12.6421 3.38153C12.6238 3.63617 12.6006 3.9254 12.6006 3.9254C12.6765 3.9216 12.7487 3.89323 12.8052 3.84501C12.8617 3.7968 12.899 3.73168 12.9109 3.66054L12.9416 3.49785C13.1133 3.60555 13.2366 3.7699 13.2875 3.95893C13.3384 4.14796 13.3132 4.34816 13.217 4.5206C13.1207 4.69305 12.9601 4.82541 12.7665 4.89195C12.5729 4.95849 12.3601 4.95446 12.1694 4.88064C11.9788 4.80681 11.824 4.66847 11.735 4.49252C11.6461 4.31657 11.6294 4.11557 11.6883 3.92862C11.7471 3.74167 11.8772 3.58213 12.0534 3.48101C12.2295 3.3799 12.439 3.34444 12.6412 3.38153M7.05023 3.49627L7.08176 3.66132C7.09251 3.73412 7.13051 3.80084 7.18884 3.84931C7.24718 3.89779 7.32196 3.92479 7.39957 3.9254C7.39957 3.9254 7.37716 3.6346 7.35974 3.37917C7.40676 3.37131 7.45516 3.36738 7.50495 3.36738C7.70424 3.36724 7.89692 3.43505 8.04778 3.5584C8.19863 3.68175 8.29758 3.85241 8.32652 4.03917C8.35547 4.22594 8.31248 4.41633 8.20542 4.57555C8.09836 4.73476 7.93438 4.85216 7.74345 4.90628C7.55253 4.9604 7.34742 4.94763 7.16562 4.8703C6.98382 4.79296 6.83747 4.65624 6.75334 4.48512C6.66921 4.314 6.65291 4.11991 6.70743 3.93834C6.76194 3.75677 6.88363 3.59986 7.05023 3.49627Z" fill="#8E8E93"/>
<path fill-rule="evenodd" clip-rule="evenodd" d="M7.35124 3.92017C7.36691 3.92229 7.38271 3.92334 7.39854 3.92332C7.39854 3.92332 7.36535 3.49891 7.34875 3.22539C7.34383 3.1553 7.35551 3.08505 7.38293 3.01978C7.41035 2.95451 7.45282 2.89587 7.50724 2.84814L7.59934 2.76876C7.66257 2.71362 7.71305 2.64668 7.74761 2.57214C7.78217 2.49761 7.80006 2.4171 7.80015 2.3357V1.91836C7.80015 1.79811 7.88395 1.69358 8.01008 1.67C8.33618 1.58983 9.03153 1.46094 9.99489 1.46094C10.9583 1.46094 11.6528 1.59769 11.9797 1.67C12.0967 1.70144 12.1888 1.80597 12.1888 1.91836V2.33491C12.1888 2.50389 12.2635 2.65637 12.3896 2.76876L12.49 2.85678C12.5435 2.90358 12.5854 2.96091 12.6129 3.02474C12.6405 3.08856 12.6529 3.15732 12.6493 3.22618C12.6327 3.49812 12.5995 3.92332 12.5995 3.92332C12.6112 3.92332 12.623 3.92201 12.6352 3.91939L12.4792 5.99665C12.3946 6.84941 11.6893 7.46009 10.823 7.46009H9.16346C8.30465 7.46009 7.59104 6.84941 7.50558 5.99665L7.35124 3.92017Z" fill="#8E8E93"/>
<path d="M9.99376 5.88543C9.7299 5.88543 9.48926 5.8202 9.27933 5.70624C9.20963 5.66537 9.13163 5.75497 9.1781 5.8202C9.34903 6.09764 9.6519 6.2847 9.99376 6.2847C10.3356 6.2847 10.6385 6.09764 10.8094 5.8202C10.8559 5.74711 10.7779 5.66537 10.7082 5.70624C10.4911 5.82505 10.2445 5.8869 9.99376 5.88543Z" fill="#8E8E93"/>
<path d="M9.82121 4.06335L9.58555 4.93575C9.53577 5.11652 9.65691 5.29729 9.81374 5.29729H10.1639C10.3274 5.29729 10.4419 5.11652 10.3921 4.93575L10.1564 4.06335C10.1066 3.87472 9.87099 3.87472 9.82121 4.06335Z" fill="#8E8E93"/>
<path fill-rule="evenodd" clip-rule="evenodd" d="M10.7191 3.86106C10.6986 3.83821 10.6697 3.82361 10.6383 3.82023C10.6068 3.81685 10.5752 3.82495 10.5498 3.84287C10.5244 3.86079 10.5072 3.8872 10.5017 3.91671C10.4961 3.94622 10.5027 3.97663 10.52 4.00175C10.5924 4.0915 10.6861 4.16392 10.7935 4.21319C10.9008 4.26246 11.0189 4.28722 11.1381 4.28547C11.2575 4.28673 11.3754 4.26176 11.4829 4.21253C11.5903 4.1633 11.6842 4.09115 11.7571 4.00175C11.7767 3.97652 11.7849 3.94497 11.78 3.91401C11.775 3.88306 11.7572 3.85525 11.7306 3.8367C11.704 3.81814 11.6706 3.81037 11.638 3.81509C11.6053 3.81981 11.5759 3.83662 11.5563 3.86185C11.5065 3.92147 11.4429 3.96942 11.3704 4.002C11.2979 4.03457 11.2184 4.05089 11.1381 4.04969C11.0578 4.0508 10.9783 4.03436 10.9058 4.00164C10.8332 3.96893 10.7688 3.92082 10.7191 3.86106ZM8.43807 3.86106C8.41758 3.83821 8.38867 3.82361 8.35723 3.82023C8.32578 3.81685 8.29415 3.82495 8.26878 3.84287C8.24341 3.86079 8.2262 3.8872 8.22066 3.91671C8.21511 3.94622 8.22164 3.97663 8.23892 4.00175C8.31139 4.0915 8.40506 4.16392 8.51242 4.21319C8.61977 4.26246 8.73782 4.28722 8.8571 4.28547C8.97642 4.28673 9.09441 4.26176 9.20182 4.21253C9.30922 4.1633 9.40311 4.09115 9.47611 4.00175C9.4957 3.97652 9.5039 3.94497 9.49892 3.91401C9.49394 3.88306 9.47619 3.85525 9.44956 3.8367C9.42293 3.81814 9.38961 3.81037 9.35693 3.81509C9.32425 3.81981 9.29489 3.83662 9.27531 3.86185C9.2255 3.92147 9.16187 3.96942 9.08935 4.002C9.01682 4.03457 8.93736 4.05089 8.8571 4.04969C8.77678 4.0508 8.69727 4.03436 8.62474 4.00164C8.55221 3.96893 8.48779 3.92082 8.43807 3.86106ZM12.0185 3.20086C12.0405 3.17359 12.0566 3.14245 12.0658 3.10925C12.075 3.07605 12.0772 3.04145 12.0722 3.00746C12.0671 2.97346 12.055 2.94075 12.0366 2.91121C12.0181 2.88168 11.9936 2.85591 11.9646 2.8354L11.9629 2.83461L11.9613 2.83304L11.9555 2.82832C11.9301 2.81122 11.9038 2.79547 11.8766 2.78117C11.5897 2.62456 11.2572 2.55953 10.9282 2.59568C10.8556 2.60381 10.7893 2.63893 10.7441 2.69332C10.6988 2.74771 10.6782 2.81691 10.6867 2.8857C10.6953 2.95448 10.7324 3.01723 10.7898 3.06012C10.8472 3.10301 10.9203 3.12254 10.9929 3.11441C11.2151 3.09051 11.4393 3.13813 11.6294 3.24959L11.6343 3.25352C11.6632 3.27404 11.696 3.28895 11.731 3.29741C11.7659 3.30587 11.8023 3.30771 11.838 3.30282C11.8737 3.29792 11.908 3.2864 11.939 3.2689C11.97 3.2514 11.997 3.22828 12.0185 3.20086ZM8.18084 2.8354C8.1223 2.87688 8.08356 2.93869 8.07313 3.00722C8.06271 3.07576 8.08145 3.14542 8.12524 3.20086C8.16904 3.25631 8.23429 3.29301 8.30665 3.30288C8.37901 3.31276 8.45255 3.295 8.51109 3.25352L8.5169 3.24959L8.54677 3.23152C8.73035 3.13232 8.9425 3.09103 9.1525 3.11362C9.22366 3.11924 9.29434 3.09846 9.34964 3.05567C9.40495 3.01288 9.44055 2.95143 9.44894 2.88426C9.45733 2.81709 9.43786 2.74946 9.39464 2.69563C9.35141 2.64179 9.2878 2.60596 9.21722 2.59568C8.88826 2.55953 8.55574 2.62456 8.26879 2.78117L8.18084 2.8354Z" fill="#8E8E93"/>
</svg>
