<svg width="18" height="20" viewBox="0 0 18 20" fill="none" xmlns="http://www.w3.org/2000/svg">
<path d="M13.7142 13.2865C13.4701 13.0424 13.2915 12.7458 13.1935 12.422C13.0955 12.0981 13.0809 11.7565 13.1511 11.4261H2.24852C1.65217 11.4266 1.0804 11.6525 0.658809 12.0542C0.237215 12.4559 0.000264812 13.0005 0 13.5685V14.4448C0 14.9897 0.178041 15.5212 0.510118 15.9651C2.05248 18.0265 4.57706 19.0467 7.99786 19.0467C8.38795 19.0467 8.7657 19.0334 9.13112 19.0067C9.00122 18.6635 8.96547 18.2943 9.02726 17.9343C9.08905 17.5742 9.24633 17.2351 9.4842 16.9491L10.2844 15.987C10.5453 15.6743 10.8947 15.4391 11.2913 15.3092C11.6878 15.1793 12.1152 15.1599 12.5229 15.2536L13.3611 15.4469C13.8812 15.0307 14.1913 14.5182 14.3093 13.8809L13.7142 13.2865ZM7.99786 0C8.65462 -9.32021e-09 9.30495 0.123195 9.91172 0.362552C10.5185 0.601908 11.0698 0.952738 11.5342 1.39501C11.9986 1.83728 12.367 2.36234 12.6183 2.9402C12.8697 3.51806 12.999 4.1374 12.999 4.76287C12.999 5.38834 12.8697 6.00768 12.6183 6.58554C12.367 7.1634 11.9986 7.68845 11.5342 8.13072C11.0698 8.573 10.5185 8.92383 9.91172 9.16319C9.30495 9.40254 8.65462 9.52574 7.99786 9.52574C6.67147 9.52574 5.3994 9.02394 4.4615 8.13072C3.5236 7.23751 2.9967 6.02606 2.9967 4.76287C2.9967 3.49968 3.5236 2.28822 4.4615 1.39501C5.3994 0.501801 6.67147 0 7.99786 0ZM14.1913 11.4214L14.6674 10.2735C14.9095 9.68863 15.5876 9.38476 16.2158 9.58003L16.6469 9.71435C17.371 9.94011 17.9732 10.4821 17.9972 11.2089C18.0972 14.1714 15.5206 18.4323 12.783 19.8345C12.1098 20.1793 11.3146 19.9517 10.7475 19.462L10.4104 19.1715C10.1747 18.9683 10.0289 18.6874 10.0026 18.3857C9.97619 18.0839 10.0712 17.7839 10.2684 17.5464L11.0686 16.5843C11.3586 16.2347 11.8358 16.0794 12.2889 16.1842L13.5812 16.4824C14.6841 15.787 15.2755 14.8093 15.3556 13.5494L14.4384 12.6311C14.2801 12.473 14.1728 12.2751 14.129 12.0607C14.0852 11.8463 14.1068 11.6244 14.1913 11.4214Z" fill="#8E8E93"/>
</svg>
