<svg width="16" height="16" viewBox="0 0 16 16" fill="none" xmlns="http://www.w3.org/2000/svg">
<g clip-path="url(#clip0_544_999)">
<path d="M14.7289 9.5411C15.0484 9.69266 14.8907 10.0553 14.7289 10.37C13.9489 11.8864 9.54621 15.758 5.93955 15.758C2.78221 15.758 0.222656 13.2487 0.222656 10.37C0.222656 7.49133 3.73821 8.9931 6.02532 7.46866C6.78755 7.46866 6.85421 5.81088 14.7289 9.5411Z" fill="#BE1931"/>
<path d="M13.9 9.54229C15.2907 10.4374 8.99643 12.6654 5.83866 12.6654C2.68132 12.6654 0.222656 11.5503 0.222656 9.93696C0.222656 8.32362 2.78221 7.01562 5.93955 7.01562C9.09732 7.01562 11.4133 7.94229 13.9 9.54229Z" fill="#7F031E"/>
<path d="M13.0705 9.95526C14.2505 10.7553 9.29631 12.7113 5.93898 12.7113C2.81453 12.7113 0.894531 11.6304 0.894531 10.297C0.894531 8.9637 3.1532 7.88281 5.93898 7.88281C8.72475 7.88281 11.4128 8.83126 13.0705 9.95526Z" fill="#FFAC33"/>
<path d="M10.9973 10.7803C10.896 10.7806 10.7981 10.7437 10.7221 10.6767C10.6462 10.6096 10.5974 10.517 10.5851 10.4165C10.5728 10.3159 10.5978 10.2143 10.6553 10.1309C10.7128 10.0475 10.7989 9.98811 10.8973 9.9639C12.5408 9.55279 13.1466 9.17901 13.4968 7.77857C13.5278 7.67674 13.5968 7.59072 13.6894 7.53827C13.782 7.48582 13.8912 7.47096 13.9945 7.49674C14.0978 7.52253 14.1872 7.58701 14.2443 7.67684C14.3014 7.76668 14.3218 7.87501 14.3013 7.97945C13.8093 9.94745 12.6635 10.3763 11.0982 10.7679C11.0651 10.7759 11.0313 10.7801 10.9973 10.7803Z" fill="black"/>
<path d="M11.8906 5.38698C11.8906 7.29632 13 7.97943 13.8351 7.97943C14.6702 7.97943 15.7795 7.29587 15.7795 5.38698C15.7795 3.47765 14.9155 1.54209 13.8351 0.246094C12.7546 1.54209 11.8906 3.47765 11.8906 5.38698Z" fill="#F4900C"/>
<path d="M13.8344 7.97873C14.4311 7.97873 14.9148 7.10818 14.9148 6.03429C14.9148 4.9604 14.4311 4.08984 13.8344 4.08984C13.2376 4.08984 12.7539 4.9604 12.7539 6.03429C12.7539 7.10818 13.2376 7.97873 13.8344 7.97873Z" fill="#FFCC4D"/>
<path d="M5.4077 11.4366C7.0783 11.4366 8.43259 10.8562 8.43259 10.1402C8.43259 9.42419 7.0783 8.84375 5.4077 8.84375C3.7371 8.84375 2.38281 9.42419 2.38281 10.1402C2.38281 10.8562 3.7371 11.4366 5.4077 11.4366Z" fill="#FFCC4D"/>
</g>
<defs>
<clipPath id="clip0_544_999">
<rect width="16" height="16" fill="white"/>
</clipPath>
</defs>
</svg>
