<svg width="28" height="28" viewBox="0 0 28 28" fill="none" xmlns="http://www.w3.org/2000/svg">
<path d="M17.0664 26.25C17.4145 26.25 17.7483 26.1117 17.9945 25.8656C18.2406 25.6194 18.3789 25.2856 18.3789 24.9375C18.3789 24.5894 18.2406 24.2556 17.9945 24.0094C17.7483 23.7633 17.4145 23.625 17.0664 23.625H14.4414C14.0933 23.625 13.7595 23.7633 13.5133 24.0094C13.2672 24.2556 13.1289 24.5894 13.1289 24.9375C13.1289 25.2856 13.2672 25.6194 13.5133 25.8656C13.7595 26.1117 14.0933 26.25 14.4414 26.25L17.0664 26.25ZM23.6289 17.0625C23.6289 17.4106 23.7672 17.7444 24.0133 17.9906C24.2595 18.2367 24.5933 18.375 24.9414 18.375C25.2895 18.375 25.6233 18.2367 25.8695 17.9906C26.1156 17.7444 26.2539 17.4106 26.2539 17.0625V14.434C26.2539 14.2616 26.22 14.091 26.154 13.9317C26.088 13.7725 25.9914 13.6278 25.8695 13.5059C25.7476 13.384 25.6029 13.2874 25.4437 13.2214C25.2844 13.1554 25.1138 13.1215 24.9414 13.1215C24.769 13.1215 24.5984 13.1554 24.4391 13.2214C24.2799 13.2874 24.1352 13.384 24.0133 13.5059C23.8915 13.6278 23.7948 13.7725 23.7288 13.9317C23.6629 14.091 23.6289 14.2616 23.6289 14.434V17.0625ZM10.5039 24.9375C10.5039 25.2856 10.3656 25.6194 10.1195 25.8656C9.87334 26.1117 9.5395 26.25 9.19141 26.25C8.14712 26.25 7.1456 25.8352 6.40717 25.0967C5.66875 24.3583 5.25391 23.3568 5.25391 22.3125C5.25391 21.9644 5.39219 21.6306 5.63833 21.3844C5.88447 21.1383 6.21831 21 6.56641 21C6.9145 21 7.24834 21.1383 7.49448 21.3844C7.74063 21.6306 7.87891 21.9644 7.87891 22.3125C7.87891 22.6606 8.01719 22.9944 8.26333 23.2406C8.50947 23.4867 8.84331 23.625 9.19141 23.625C9.5395 23.625 9.87334 23.7633 10.1195 24.0094C10.3656 24.2556 10.5039 24.5894 10.5039 24.9375ZM22.3164 26.25C21.9683 26.25 21.6345 26.1117 21.3883 25.8656C21.1422 25.6194 21.0039 25.2856 21.0039 24.9375C21.0039 24.5894 21.1422 24.2556 21.3883 24.0094C21.6345 23.7633 21.9683 23.625 22.3164 23.625C22.6645 23.625 22.9983 23.4867 23.2445 23.2406C23.4906 22.9944 23.6289 22.6606 23.6289 22.3125C23.6289 21.9644 23.7672 21.6306 24.0133 21.3844C24.2595 21.1383 24.5933 21 24.9414 21C25.2895 21 25.6233 21.1383 25.8695 21.3844C26.1156 21.6306 26.2539 21.9644 26.2539 22.3125C26.2539 23.3568 25.8391 24.3583 25.1006 25.0967C24.3622 25.8352 23.3607 26.25 22.3164 26.25ZM21.0039 6.5625C21.0039 6.2144 21.1422 5.88056 21.3883 5.63442C21.6345 5.38828 21.9683 5.25 22.3164 5.25C23.3607 5.25 24.3622 5.66484 25.1006 6.40327C25.8391 7.14169 26.2539 8.14321 26.2539 9.1875C26.2539 9.5356 26.1156 9.86944 25.8695 10.1156C25.6233 10.3617 25.2895 10.5 24.9414 10.5C24.5933 10.5 24.2595 10.3617 24.0133 10.1156C23.7672 9.86944 23.6289 9.5356 23.6289 9.1875C23.6289 8.463 23.0409 7.875 22.3164 7.875C21.9683 7.875 21.6345 7.73672 21.3883 7.49058C21.1422 7.24444 21.0039 6.9106 21.0039 6.5625ZM3.50391 11.375C3.50391 10.3408 3.7076 9.31681 4.10335 8.36137C4.49911 7.40593 5.07918 6.5378 5.81044 5.80653C6.5417 5.07527 7.40984 4.4952 8.36527 4.09945C9.32071 3.70369 10.3447 3.5 11.3789 3.5C12.4131 3.5 13.4371 3.70369 14.3925 4.09945C15.348 4.4952 16.2161 5.07527 16.9474 5.80653C17.6786 6.5378 18.2587 7.40593 18.6545 8.36137C19.0502 9.31681 19.2539 10.3408 19.2539 11.375C19.2539 13.4636 18.4242 15.4666 16.9474 16.9435C15.4705 18.4203 13.4675 19.25 11.3789 19.25C9.29033 19.25 7.28729 18.4203 5.81044 16.9435C4.33359 15.4666 3.50391 13.4636 3.50391 11.375ZM12.9469 15.932C13.0282 16.0135 13.1247 16.0781 13.231 16.1222C13.3374 16.1664 13.4513 16.1891 13.5664 16.1891C13.6815 16.1891 13.7955 16.1664 13.9018 16.1222C14.0081 16.0781 14.1046 16.0135 14.1859 15.932L17.2484 12.8695C17.4118 12.706 17.5039 12.4845 17.5046 12.2533C17.5053 12.0222 17.4144 11.8002 17.2519 11.6357L14.1859 8.568C14.0216 8.4037 13.7988 8.3114 13.5664 8.3114C13.334 8.3114 13.1112 8.4037 12.9469 8.568C12.7826 8.7323 12.6903 8.95514 12.6903 9.1875C12.6903 9.41986 12.7826 9.6427 12.9469 9.807L14.5167 11.375H11.8164C10.1259 11.375 8.75391 10.003 8.75391 8.3125V7.875C8.75391 7.64293 8.66172 7.42038 8.49763 7.25628C8.33353 7.09219 8.11097 7 7.87891 7C7.64684 7 7.42428 7.09219 7.26019 7.25628C7.09609 7.42038 7.00391 7.64293 7.00391 7.875V8.3125C7.00391 9.58885 7.51093 10.8129 8.41345 11.7155C9.31597 12.618 10.5401 13.125 11.8164 13.125H14.5167L12.9469 14.693C12.8654 14.7743 12.8008 14.8708 12.7567 14.9771C12.7125 15.0834 12.6898 15.1974 12.6898 15.3125C12.6898 15.4276 12.7125 15.5416 12.7567 15.6479C12.8008 15.7542 12.8654 15.8507 12.9469 15.932Z" fill="#E67E22"/>
</svg>
