<svg width="20" height="20" viewBox="0 0 20 20" fill="none" xmlns="http://www.w3.org/2000/svg">
<path fill-rule="evenodd" clip-rule="evenodd" d="M11.2279 0.449879C10.8768 0.158304 10.4447 0 9.9999 0C9.55511 0 9.12301 0.158304 8.77193 0.449879L0.388096 7.41071C-0.363889 8.0374 0.0501027 9.32388 1.00308 9.32388H2.09506L2.91504 18.0772C2.96439 18.6041 3.19534 19.0926 3.56307 19.4479C3.93079 19.8032 4.40905 20 4.905 20H15.0948C15.5908 20 16.069 19.8032 16.4367 19.4479C16.8045 19.0926 17.0354 18.6041 17.0848 18.0772L17.9047 9.32388H18.9967C19.9487 9.32388 20.3647 8.0374 19.6117 7.41178L11.2279 0.449879ZM9.9999 14.6619C10.7955 14.6619 11.5586 14.3245 12.1212 13.7238C12.6838 13.1232 12.9998 12.3085 12.9998 11.4591C12.9998 10.6097 12.6838 9.795 12.1212 9.19435C11.5586 8.5937 10.7955 8.25626 9.9999 8.25626C9.20427 8.25626 8.44122 8.5937 7.87862 9.19435C7.31603 9.795 6.99996 10.6097 6.99996 11.4591C6.99996 12.3085 7.31603 13.1232 7.87862 13.7238C8.44122 14.3245 9.20427 14.6619 9.9999 14.6619Z" fill="#8E8E93"/>
</svg>
