<svg width="22" height="22" viewBox="0 0 22 22" fill="none" xmlns="http://www.w3.org/2000/svg">
<path d="M15.2989 7.28101C14.1395 6.11999 12.9556 4.98301 11.8014 3.81538C11.6663 3.67922 11.4739 3.38984 11.276 3.33308C10.944 3.2401 10.5059 3.32332 10.1643 3.32332C10.1283 3.3223 10.0924 3.32865 10.0589 3.342C10.0255 3.35535 9.995 3.37542 9.96943 3.40098L9.95561 3.41421C9.95561 3.41421 9.95423 3.4163 9.95354 3.4163C9.92757 3.44314 9.90723 3.47498 9.89376 3.50993C9.88028 3.54487 9.87394 3.5822 9.87512 3.61967L9.90518 15.9775C8.14125 14.6538 4.82724 15.1285 4.20265 17.4512C3.84441 18.7853 4.13874 20.3548 5.26114 21.2139C6.46784 22.1367 8.23245 22.2223 9.58942 21.6028C10.8365 21.0356 11.8183 19.9129 11.867 18.4652C11.8981 17.5201 11.867 16.5688 11.867 15.623V8.2101C13.1086 8.4368 14.382 9.43205 15.0726 10.4005C15.7214 11.3125 15.8195 12.8211 15.663 13.7756C15.4996 14.7691 14.9244 15.6491 14.7468 16.636C14.6974 16.9066 14.7928 17.1378 15.0781 17.1709C15.4495 17.2113 15.9169 16.4643 16.0748 16.2508C18.228 13.3706 17.7889 9.77819 15.2989 7.28205" fill="black"/>
<path d="M6.99108 2.58991C6.26976 1.86802 5.53392 1.1611 4.81606 0.433992C4.73142 0.349371 4.61223 0.169682 4.48856 0.135207C4.28266 0.0770515 4.00941 0.128242 3.79764 0.128242C3.77517 0.127582 3.75281 0.131533 3.7319 0.139854C3.711 0.148175 3.69199 0.160692 3.67604 0.176646L3.66705 0.185004L3.66636 0.186397C3.65031 0.20307 3.63773 0.222814 3.62936 0.244464C3.621 0.266114 3.61702 0.289232 3.61765 0.312458C3.62318 2.87511 3.63009 5.43638 3.63562 7.99799C2.53947 7.17546 0.478102 7.47007 0.0898041 8.91489C-0.133364 9.74508 0.0497307 10.7219 0.747907 11.2561C1.4979 11.83 2.59578 11.8832 3.43974 11.4981C4.2153 11.1439 4.82504 10.4464 4.85648 9.54589C4.87513 8.95772 4.85648 8.36538 4.85648 7.77721V3.16693C5.62858 3.30797 6.42072 3.92574 6.85048 4.52923C7.25398 5.0965 7.31512 6.03464 7.21701 6.62908C7.11614 7.24754 6.75858 7.79427 6.64804 8.40856C6.61729 8.5771 6.67636 8.72023 6.85324 8.74077C7.08539 8.76689 7.37489 8.30061 7.47369 8.16932C8.81408 6.37731 8.53978 4.14234 6.99143 2.59061" fill="black"/>
<path d="M21.0701 1.71893C20.5706 1.21852 20.062 0.728899 19.566 0.226397C19.5079 0.168242 19.4257 0.0439221 19.34 0.0202421C19.1977 -0.021546 19.0084 0.0143221 18.8623 0.0143221C18.8305 0.0136693 18.7997 0.0256808 18.7766 0.0477526L18.7711 0.0540208L18.7704 0.0554138C18.7592 0.0668072 18.7504 0.0803662 18.7446 0.0952704C18.7388 0.110175 18.736 0.126114 18.7365 0.142124L18.7496 5.46001C17.991 4.88995 16.5649 5.09471 16.2965 6.0938C16.1421 6.66803 16.2689 7.34326 16.7508 7.71274C17.2697 8.11007 18.029 8.14733 18.6135 7.87989C19.15 7.63578 19.5718 7.15347 19.5933 6.52944C19.6067 6.12305 19.5933 5.71318 19.5933 5.30609V2.11801C20.1277 2.21551 20.6756 2.64245 20.973 3.06033C21.2518 3.45209 21.2943 4.10085 21.2259 4.51177C21.1561 4.93975 20.9088 5.31863 20.8317 5.74347C20.8103 5.85978 20.8514 5.95938 20.9741 5.97331C21.134 5.99107 21.3351 5.6686 21.4035 5.57736C22.33 4.33765 22.1414 2.79184 21.0701 1.71893Z" fill="black"/>
</svg>
