<svg width="21" height="22" viewBox="0 0 21 22" fill="none" xmlns="http://www.w3.org/2000/svg">
<path d="M10.8359 4.75C10.8359 4.55109 10.7569 4.36032 10.6163 4.21967C10.4756 4.07902 10.2848 4 10.0859 4C9.88703 4 9.69626 4.07902 9.55561 4.21967C9.41496 4.36032 9.33594 4.55109 9.33594 4.75V8.75C9.33594 8.94891 9.41496 9.13968 9.55561 9.28033C9.69626 9.42098 9.88703 9.5 10.0859 9.5C10.2848 9.5 10.4756 9.42098 10.6163 9.28033C10.7569 9.13968 10.8359 8.94891 10.8359 8.75V4.75Z" fill="black"/>
<path fill-rule="evenodd" clip-rule="evenodd" d="M2.33505 7.75C2.33505 5.69457 3.15156 3.72333 4.60497 2.26992C6.05838 0.816516 8.02962 0 10.085 0C12.1405 0 14.1117 0.816516 15.5651 2.26992C17.0185 3.72333 17.835 5.69457 17.835 7.75V8.454C17.835 9.151 18.041 9.832 18.428 10.412L19.576 12.135C20.91 14.135 19.892 16.853 17.573 17.485C16.8177 17.691 16.0564 17.8653 15.289 18.008L15.287 18.013C14.518 20.065 12.463 21.5 10.085 21.5C7.70705 21.5 5.65205 20.065 4.88305 18.013L4.88105 18.008C4.11298 17.8645 3.35103 17.69 2.59705 17.485C0.278049 16.853 -0.739952 14.135 0.594048 12.135L1.74205 10.412C2.12866 9.83218 2.33499 9.15089 2.33505 8.454V7.75ZM6.70805 18.287C8.95109 18.5546 11.218 18.5546 13.461 18.287C12.751 19.308 11.514 20 10.085 20C8.65605 20 7.41905 19.308 6.70805 18.287ZM10.085 1.5C8.42745 1.5 6.83773 2.15848 5.66563 3.33058C4.49353 4.50269 3.83505 6.0924 3.83505 7.75V8.454C3.83496 9.44702 3.54094 10.4178 2.99005 11.244L1.84205 12.967C1.66416 13.2334 1.55218 13.5383 1.51535 13.8565C1.47852 14.1747 1.5179 14.4971 1.63024 14.7971C1.74258 15.0971 1.92466 15.3661 2.16144 15.5819C2.39823 15.7976 2.68293 15.954 2.99205 16.038C7.63624 17.3046 12.5349 17.3046 17.179 16.038C17.488 15.9539 17.7726 15.7976 18.0092 15.5819C18.2459 15.3662 18.4279 15.0973 18.5402 14.7975C18.6525 14.4976 18.692 14.1754 18.6553 13.8573C18.6185 13.5392 18.5067 13.2344 18.329 12.968L17.179 11.244C16.6285 10.4177 16.3348 9.44692 16.335 8.454V7.75C16.335 6.0924 15.6766 4.50269 14.5045 3.33058C13.3324 2.15848 11.7427 1.5 10.085 1.5Z" fill="black"/>
</svg>
