<svg width="24" height="24" viewBox="0 0 24 24" fill="none" xmlns="http://www.w3.org/2000/svg">
<g clip-path="url(#clip0_136_189)">
<path d="M14.7693 3.86745C14.7026 3.86745 14.6026 3.86745 14.5359 3.90078V2.13411C14.5359 1.40078 13.9359 0.800781 13.2026 0.800781C12.6359 0.800781 12.1693 1.13411 11.9693 1.60078C11.7693 1.13411 11.3026 0.800781 10.7359 0.800781C10.0026 0.800781 9.4026 1.40078 9.4026 2.13411V3.90078C9.33594 3.90078 9.23594 3.86745 9.16927 3.86745C8.43594 3.86745 7.83594 4.46745 7.83594 5.20078V15.7674C7.83594 16.5008 8.43594 17.1008 9.16927 17.1008C9.53594 17.1008 9.9026 16.9341 10.1359 16.7008C10.3026 16.8008 10.5359 16.8674 10.7359 16.8674V16.9341H14.1026C14.3026 17.0341 14.5026 17.1008 14.7693 17.1008C15.5026 17.1008 16.1026 16.5008 16.1026 15.7674V5.20078C16.1026 4.46745 15.5359 3.86745 14.7693 3.86745Z" fill="#D3D3D3"/>
<path d="M22.2324 14.8333C22.1324 14.6666 22.0324 14.5333 21.899 14.4C20.7324 13.2333 18.299 13.8333 16.4324 15.7C14.5657 17.5666 13.9657 20.0333 15.1324 21.1666C15.2324 21.2666 15.299 21.3333 15.399 21.4L17.999 24H23.9324L23.999 16.6L22.2324 14.8333Z" fill="#E67E22"/>
<path d="M20.3664 14.1658C20.2997 14.0324 20.1997 13.8991 20.0664 13.7991C17.7997 11.7991 15.2331 8.86576 15.2331 7.83242V2.56576C15.2331 1.83242 14.6331 1.23242 13.8997 1.23242C13.1664 1.23242 12.5664 1.83242 12.5664 2.56576V13.3991C12.5664 17.5658 14.9997 19.9658 15.0997 20.0658C15.2997 20.2324 15.5664 20.3658 15.8331 20.4324H16.0997C16.6997 20.4324 17.9331 20.1991 19.4331 18.6991C21.1664 16.9991 20.8331 15.0658 20.3664 14.1658Z" fill="white"/>
<path d="M7.53151 15.7C5.66484 13.8333 3.19818 13.2333 2.06484 14.4C1.93151 14.5333 1.83151 14.6666 1.73151 14.8333L-0.0351562 16.6L-0.00182292 24H5.93151L8.53151 21.4C8.63151 21.3333 8.73151 21.2666 8.79818 21.1666C9.99818 20 9.39818 17.5666 7.53151 15.7Z" fill="#E67E22"/>
<path d="M10.0663 1.23242C9.33297 1.23242 8.73297 1.83242 8.73297 2.56576V7.83242C8.73297 8.86576 6.19963 11.7991 3.89963 13.7991C3.7663 13.8991 3.6663 14.0324 3.59963 14.1658C3.13297 15.0658 2.79963 16.9991 4.49963 18.7324C5.99963 20.2324 7.23297 20.4658 7.83297 20.4658H8.09963C8.3663 20.4324 8.63297 20.2991 8.83297 20.0991C8.93297 19.9991 11.3663 17.6324 11.3663 13.4324V2.56576C11.3996 1.83242 10.7996 1.23242 10.0663 1.23242Z" fill="white"/>
<path d="M18.1693 4.59919C18.2026 4.59919 18.2026 4.59919 18.2359 4.56586L20.6026 3.23252C20.6359 3.19919 20.6693 3.16586 20.6693 3.13252C20.6693 3.09919 20.6693 3.06586 20.6359 3.03252L19.6026 1.99919C19.5693 1.99919 19.5359 1.96586 19.4693 1.99919C19.4359 1.99919 19.4026 2.03252 19.3693 2.06586L18.0359 4.43252C18.0026 4.49919 18.0026 4.53252 18.0693 4.59919H18.1693ZM3.5026 3.26586L5.86927 4.59919C5.9026 4.59919 5.9026 4.63252 5.93594 4.63252C6.03594 4.63252 6.06927 4.56586 6.06927 4.49919C6.06927 4.46586 6.06927 4.43252 6.03594 4.39919L4.73594 2.06586C4.7026 1.99919 4.66927 1.99919 4.63594 1.99919C4.6026 1.99919 4.56927 1.99919 4.53594 2.03252L3.5026 3.06586C3.46927 3.09919 3.46927 3.13252 3.46927 3.16586C3.46927 3.19919 3.46927 3.23252 3.5026 3.26586ZM20.7026 6.23252C20.6693 6.19919 20.6359 6.19919 20.6026 6.19919L18.0026 6.93252C17.9359 6.93252 17.9026 6.99919 17.9026 7.06586C17.9026 7.13252 17.9359 7.16586 18.0026 7.19919L20.6026 7.93252H20.6359C20.6693 7.93252 20.7026 7.93252 20.7026 7.89919C20.7359 7.86586 20.7693 7.83252 20.7693 7.79919V6.33252C20.7359 6.29919 20.7359 6.23252 20.7026 6.23252ZM6.13594 6.93252L3.53594 6.19919C3.5026 6.19919 3.46927 6.19919 3.43594 6.23252C3.36927 6.23252 3.33594 6.29919 3.33594 6.33252V7.76586C3.33594 7.79919 3.36927 7.83252 3.4026 7.86586C3.43594 7.89919 3.46927 7.89919 3.46927 7.89919H3.5026L6.1026 7.16586C6.16927 7.16586 6.2026 7.09919 6.2026 7.03252C6.2026 6.96586 6.16927 6.93252 6.13594 6.93252Z" fill="#D4AF37"/>
</g>
<defs>
<clipPath id="clip0_136_189">
<rect width="24" height="24" fill="white"/>
</clipPath>
</defs>
</svg>
