<svg width="14" height="14" viewBox="0 0 14 14" fill="none" xmlns="http://www.w3.org/2000/svg">
<path d="M10 7.5122L7.23333 4.74634C6.88889 4.40488 6.59722 4.02642 6.35833 3.61098C6.11944 3.19553 6 2.74309 6 2.25366C6 1.62764 6.21389 1.09553 6.64167 0.657317C7.06944 0.219106 7.58889 0 8.2 0C8.55556 0 8.88889 0.0768293 9.2 0.230488C9.51111 0.384146 9.77778 0.59187 10 0.853659C10.2222 0.59187 10.4889 0.384146 10.8 0.230488C11.1111 0.0768293 11.4444 0 11.8 0C12.4111 0 12.9306 0.219106 13.3583 0.657317C13.7861 1.09553 14 1.62764 14 2.25366C14 2.74309 13.8833 3.19553 13.65 3.61098C13.4167 4.02642 13.1278 4.40488 12.7833 4.74634L10 7.5122ZM10 5.6L11.8167 3.77317C12.0278 3.55691 12.2222 3.32642 12.4 3.08171C12.5778 2.83699 12.6667 2.56098 12.6667 2.25366C12.6667 2.00325 12.5833 1.79268 12.4167 1.62195C12.25 1.45122 12.0444 1.36585 11.8 1.36585C11.6444 1.36585 11.4972 1.39715 11.3583 1.45976C11.2194 1.52236 11.1 1.61626 11 1.74146L10 2.97073L9 1.74146C8.9 1.61626 8.78056 1.52236 8.64167 1.45976C8.50278 1.39715 8.35556 1.36585 8.2 1.36585C7.95556 1.36585 7.75 1.45122 7.58333 1.62195C7.41667 1.79268 7.33333 2.00325 7.33333 2.25366C7.33333 2.56098 7.42222 2.83699 7.6 3.08171C7.77778 3.32642 7.97222 3.55691 8.18333 3.77317L10 5.6ZM4 11.2683L8.63333 12.5659L12.6 11.3024C12.5444 11.2 12.4639 11.1118 12.3583 11.0378C12.2528 10.9638 12.1333 10.9268 12 10.9268H8.63333C8.33333 10.9268 8.09444 10.9154 7.91667 10.8927C7.73889 10.8699 7.55556 10.8244 7.36667 10.7561L5.81667 10.2268L6.18333 8.89512L7.53333 9.3561C7.72222 9.41301 7.94444 9.45854 8.2 9.49268C8.45556 9.52683 8.83333 9.54959 9.33333 9.56098C9.33333 9.43577 9.29722 9.31626 9.225 9.20244C9.15278 9.08862 9.06667 9.01463 8.96667 8.98049L5.06667 7.5122H4V11.2683ZM0 13.6585V6.14634H5.06667C5.14444 6.14634 5.22222 6.15488 5.3 6.17195C5.37778 6.18902 5.45 6.20894 5.51667 6.23171L9.43333 7.71707C9.8 7.85366 10.0972 8.09268 10.325 8.43415C10.5528 8.77561 10.6667 9.15122 10.6667 9.56098H12C12.5556 9.56098 13.0278 9.74878 13.4167 10.1244C13.8056 10.5 14 10.9951 14 11.6098V12.2927L8.66667 14L4 12.6683V13.6585H0ZM1.33333 12.2927H2.66667V7.5122H1.33333V12.2927Z" fill="#D4AF37"/>
</svg>
